<svg xmlns="http://www.w3.org/2000/svg" width="28" height="28" viewBox="0 0 28 28" fill="none"><rect width="28" height="28" rx="3" fill="#242323"></rect><path d="M13.9843 18.1819C16.1113 18.1819 17.206 16.9279 17.2223 14.7212V12.8967H15.175V14.8643C15.175 15.8485 14.7458 16.198 14.0477 16.198C13.365 16.198 12.9204 15.8485 12.9204 14.8643V7.42489C12.9204 6.44064 13.3496 6.05944 14.0477 6.07573C14.7304 6.07573 15.175 6.45603 15.175 7.44028V8.91259H17.2223V7.57882C17.2223 5.37218 16.1267 4.119 13.9997 4.119C11.8727 4.119 10.7753 5.37218 10.7617 7.57882V14.7375C10.7617 16.9125 11.8619 18.1819 13.9843 18.1819Z" fill="white"></path><path d="M17.2223 20.1975H10.7617V23.8484H17.2223V20.1975Z" fill="#FC5D0D"></path></svg>