<svg width="64" height="64" viewBox="0 0 64 64" fill="none" xmlns="http://www.w3.org/2000/svg">
<path d="M1.30602 51.2447C1.25921 51.21 1.22599 51.1601 1.21211 51.1034C1.19823 51.0468 1.20457 50.9872 1.23002 50.9347L8.86602 35.2087L0.0580214 24.6907C0.0156051 24.6398 -0.00485117 24.5741 0.00114947 24.5081C0.0071501 24.4421 0.0391165 24.3812 0.0900214 24.3387L25.78 2.93174C28.0007 1.08287 30.7869 0.0489906 33.6762 0.00169754C36.5654 -0.0455955 39.384 0.896541 41.664 2.67174C43.9412 4.44324 45.541 6.943 46.1958 9.75282C46.8505 12.5626 46.5206 15.5121 45.261 18.1077L42.461 23.8747C43.553 23.5077 44.634 23.1747 45.702 22.8747L58.376 19.2347C58.4088 19.2253 58.4432 19.2227 58.477 19.2271C58.5108 19.2315 58.5434 19.2427 58.5727 19.2601C58.602 19.2775 58.6275 19.3008 58.6475 19.3284C58.6675 19.356 58.6816 19.3874 58.689 19.4207L63.995 43.0057C64.0028 43.0402 64.0034 43.0758 63.9966 43.1105C63.9898 43.1451 63.9758 43.178 63.9555 43.2069C63.9353 43.2358 63.9092 43.2601 63.879 43.2784C63.8488 43.2966 63.815 43.3083 63.78 43.3127C62.098 43.5247 52.922 44.8427 41.499 49.6427C28.555 55.0777 20.014 62.8047 18.804 63.9347C18.7612 63.9746 18.7056 63.998 18.6471 64.0005C18.5886 64.0031 18.5312 63.9847 18.485 63.9487L1.30602 51.2447Z" fill="url(#paint0_linear_232_18)"/>
<path d="M52 12H12V52H52V12Z" fill="black"/>
<path d="M21.467 26.3702L15.979 16.9922H19.129L22.528 22.9842L22.925 23.8422L23.322 22.9732L26.633 16.9932H29.731L24.328 26.3502V31.9982H21.467V26.3702ZM33 43.9982H17V46.9982H33V43.9982ZM42.325 16.9922H30.288V19.6292H34.854V32.0002H37.78V19.6302H42.325V16.9922Z" fill="white"/>
<defs>
<linearGradient id="paint0_linear_232_18" x1="-0.101979" y1="31.9997" x2="64.053" y2="31.9997" gradientUnits="userSpaceOnUse">
<stop stop-color="#FB43FF"/>
<stop offset="0.97" stop-color="#FB406D"/>
</linearGradient>
</defs>
</svg>
