<svg width="800" height="800" viewBox="0 0 800 800" fill="none" xmlns="http://www.w3.org/2000/svg">
<path d="M337.525 400H150.075C132.825 400 118.825 413.975 118.825 431.25V743.65C118.825 760.9 132.8 774.9 150.075 774.9H368.75V431.25C368.75 414 354.775 400 337.5 400H337.525ZM493.725 212.55H306.275C289.025 212.55 275.025 226.525 275.025 243.8V384.375H337.5C363.375 384.4 384.325 405.375 384.35 431.225V774.875H524.925V243.775C524.925 226.525 510.95 212.525 493.675 212.525L493.725 212.55ZM681.175 56.35V743.65C681.175 760.9 667.2 774.9 649.925 774.9H540.575V243.8C540.55 217.925 519.575 196.975 493.725 196.95H431.25V56.375C431.25 39.125 445.225 25.125 462.5 25.125H649.95C667.2 25.125 681.2 39.1 681.2 56.375L681.175 56.35Z" fill="url(#paint0_linear_232_4)"/>
<defs>
<linearGradient id="paint0_linear_232_4" x1="400.013" y1="25.125" x2="400.013" y2="774.9" gradientUnits="userSpaceOnUse">
<stop stop-color="#FFE600"/>
<stop offset="1" stop-color="#FF8A00"/>
</linearGradient>
</defs>
</svg>
