<svg width="63" height="50" viewBox="0 0 63 50" fill="none" xmlns="http://www.w3.org/2000/svg">
<path d="M56.9149 0H5.85106C2.62128 0.00425532 0.00425532 2.62128 0 5.85106V44.1489C0.00425532 47.3787 2.62128 49.9957 5.85106 50H56.9149C60.1447 49.9957 62.7617 47.3787 62.766 44.1489V5.85106C62.7617 2.62128 60.1447 0.00425532 56.9149 0ZM5.85106 3.19149H56.9149C58.1128 3.20213 59.1191 4.01277 59.4255 5.11489L59.4298 5.13404L31.383 25.1681L3.33617 5.13404C3.64681 4.01277 4.65532 3.20213 5.85106 3.19149ZM56.9149 46.8085H5.85106C4.38298 46.8064 3.19362 45.617 3.19149 44.1489V8.95106L30.4553 28.4255C30.4851 28.4468 30.5234 28.4383 30.5532 28.4574C30.783 28.6128 31.0638 28.7085 31.366 28.7191H31.3681L31.3787 28.7234H31.383L31.3936 28.7191C31.6979 28.7085 31.9787 28.6106 32.2149 28.4532L32.2085 28.4574C32.2383 28.4383 32.2766 28.4468 32.3064 28.4255L59.5702 8.95106V44.1489C59.5681 45.617 58.3787 46.8064 56.9106 46.8085H56.9149Z" fill="white"/>
</svg>
