<svg width="50" height="50" viewBox="0 0 50 50" fill="none" xmlns="http://www.w3.org/2000/svg">
<path d="M46.0938 0H3.90625C1.74805 0 0 1.74805 0 3.90625V46.0938C0 48.252 1.74805 50 3.90625 50H46.0938C48.252 50 50 48.252 50 46.0938V3.90625C50 1.74805 48.252 0 46.0938 0ZM47.0703 46.0938C47.0703 46.6309 46.6309 47.0703 46.0938 47.0703H3.90625C3.36914 47.0703 2.92969 46.6309 2.92969 46.0938V3.90625C2.92969 3.36914 3.36914 2.92969 3.90625 2.92969H46.0938C46.6309 2.92969 47.0703 3.36914 47.0703 3.90625V46.0938Z" fill="white"/>
<path d="M28.3008 16.4746C29.3066 16.4746 30.3809 16.7871 30.3809 16.7871L31.0254 12.959C31.0254 12.959 29.6582 12.4902 26.3965 12.4902C24.3945 12.4902 23.2324 13.252 22.3828 14.375C21.582 15.4395 21.5527 17.1484 21.5527 18.252V20.7617H18.9648V24.502H21.5527V37.4902H26.3965V24.502H30.2344L30.5176 20.7617H26.3965V17.8418C26.3965 16.8359 27.2949 16.4746 28.3008 16.4746Z" fill="white"/>
</svg>
