<svg width="396" height="401" viewBox="0 0 396 401" fill="none" xmlns="http://www.w3.org/2000/svg">
<path d="M337.163 280.642C321.132 293.523 296.119 292.226 268.564 279.579C241.024 266.94 211.02 242.993 185.095 210.728C159.169 178.462 142.245 144.006 135.832 114.39C129.416 84.7579 133.536 60.0533 149.567 47.1721C165.598 34.291 190.61 35.5879 218.165 48.2344C245.706 60.874 275.709 84.8207 301.635 117.086C327.56 149.352 344.485 183.808 350.897 213.424C357.313 243.056 353.194 267.761 337.163 280.642Z" stroke="url(#paint0_linear_161_911)" stroke-width="0.5"/>
<path d="M330.666 285.861C314.635 298.743 289.623 297.446 262.068 284.799C234.528 272.16 204.524 248.213 178.599 215.947C152.673 183.682 135.749 149.226 129.336 119.61C122.92 89.9776 127.04 65.273 143.071 52.3919C159.102 39.5107 184.114 40.8077 211.669 53.4542C239.21 66.0937 269.213 90.0405 295.139 122.306C321.064 154.572 337.988 189.027 344.401 218.643C350.817 248.276 346.698 272.98 330.666 285.861Z" stroke="url(#paint1_linear_161_911)" stroke-width="0.5"/>
<path d="M324.17 291.081C308.139 303.962 283.127 302.665 255.572 290.019C228.031 277.379 198.028 253.433 172.103 221.167C146.177 188.902 129.253 154.446 122.84 124.83C116.424 95.1974 120.544 70.4927 136.575 57.6116C152.606 44.7304 177.618 46.0274 205.173 58.6739C232.713 71.3134 262.717 95.2602 288.642 127.526C314.568 159.791 331.492 194.247 337.905 223.863C344.321 253.495 340.201 278.2 324.17 291.081Z" stroke="url(#paint2_linear_161_911)" stroke-width="0.5"/>
<path d="M317.674 296.301C301.643 309.182 276.631 307.885 249.076 295.239C221.535 282.599 191.532 258.652 165.606 226.387C139.681 194.121 122.757 159.665 116.344 130.049C109.928 100.417 114.047 75.7125 130.078 62.8313C146.11 49.9502 171.122 51.2471 198.677 63.8936C226.217 76.5332 256.221 100.48 282.146 132.745C308.072 165.011 324.996 199.467 331.409 229.083C337.825 258.715 333.705 283.42 317.674 296.301Z" stroke="url(#paint3_linear_161_911)" stroke-width="0.5"/>
<path d="M311.178 301.521C295.147 314.402 270.135 313.105 242.58 300.458C215.039 287.819 185.036 263.872 159.11 231.607C133.185 199.341 116.26 164.885 109.848 135.269C103.432 105.637 107.551 80.9322 123.582 68.051C139.613 55.1699 164.626 56.4668 192.181 69.1134C219.721 81.7529 249.724 105.7 275.65 137.965C301.576 170.231 318.5 204.687 324.913 234.303C331.329 263.935 327.209 288.64 311.178 301.521Z" stroke="url(#paint4_linear_161_911)" stroke-width="0.5"/>
<path d="M304.682 306.74C288.651 319.622 263.639 318.325 236.083 305.678C208.543 293.039 178.54 269.092 152.614 236.826C126.688 204.561 109.764 170.105 103.352 140.489C96.9357 110.857 101.055 86.1519 117.086 73.2708C133.117 60.3896 158.129 61.6866 185.685 74.3331C213.225 86.9726 243.228 110.919 269.154 143.185C295.08 175.45 312.004 209.906 318.417 239.522C324.833 269.155 320.713 293.859 304.682 306.74Z" stroke="url(#paint5_linear_161_911)" stroke-width="0.5"/>
<path d="M298.186 311.96C282.155 324.841 257.143 323.544 229.587 310.898C202.047 298.258 172.044 274.312 146.118 242.046C120.192 209.78 103.268 175.324 96.8557 145.709C90.4396 116.076 94.5591 91.3716 110.59 78.4905C126.621 65.6094 151.633 66.9063 179.189 79.5528C206.729 92.1923 236.732 116.139 262.658 148.405C288.584 180.67 305.508 215.126 311.921 244.742C318.337 274.374 314.217 299.079 298.186 311.96Z" stroke="url(#paint6_linear_161_911)" stroke-width="0.5"/>
<path d="M291.69 317.18C275.659 330.061 250.647 328.764 223.091 316.118C195.551 303.478 165.548 279.531 139.622 247.266C113.696 215 96.7721 180.544 90.3596 150.928C83.9435 121.296 88.0631 96.5914 104.094 83.7102C120.125 70.8291 145.137 72.126 172.693 84.7725C200.233 97.4121 230.236 121.359 256.162 153.624C282.088 185.89 299.012 220.346 305.424 249.962C311.841 279.594 307.721 304.299 291.69 317.18Z" stroke="url(#paint7_linear_161_911)" stroke-width="0.5"/>
<path d="M285.194 322.4C269.163 335.281 244.151 333.984 216.595 321.337C189.055 308.698 159.052 284.751 133.126 252.485C107.2 220.22 90.276 185.764 83.8635 156.148C77.4474 126.516 81.567 101.811 97.598 88.93C113.629 76.0488 138.641 77.3458 166.197 89.9923C193.737 102.632 223.74 126.579 249.666 158.844C275.592 191.11 292.516 225.566 298.928 255.181C305.344 284.814 301.225 309.518 285.194 322.4Z" stroke="url(#paint8_linear_161_911)" stroke-width="0.5"/>
<path d="M278.698 327.619C262.667 340.5 237.655 339.203 210.099 326.557C182.559 313.917 152.556 289.971 126.63 257.705C100.704 225.44 83.7799 190.984 77.3674 161.368C70.9513 131.735 75.0709 107.031 91.1019 94.1497C107.133 81.2685 132.145 82.5655 159.701 95.212C187.241 107.852 217.244 131.798 243.17 164.064C269.096 196.329 286.02 230.785 292.432 260.401C298.848 290.034 294.729 314.738 278.698 327.619Z" stroke="url(#paint9_linear_161_911)" stroke-width="0.5"/>
<path d="M272.202 332.839C256.171 345.72 231.158 344.423 203.603 331.777C176.063 319.137 146.06 295.19 120.134 262.925C94.208 230.659 77.2839 196.203 70.8713 166.587C64.4552 136.955 68.5748 112.251 84.6058 99.3694C100.637 86.4883 125.649 87.7852 153.204 100.432C180.745 113.071 210.748 137.018 236.674 169.284C262.599 201.549 279.524 236.005 285.936 265.621C292.352 295.253 288.233 319.958 272.202 332.839Z" stroke="url(#paint10_linear_161_911)" stroke-width="0.5"/>
<path d="M265.706 338.059C249.675 350.94 224.662 349.643 197.107 336.996C169.567 324.357 139.563 300.41 113.638 268.145C87.7119 235.879 70.7878 201.423 64.3752 171.807C57.9591 142.175 62.0787 117.47 78.1097 104.589C94.1408 91.708 119.153 93.0049 146.708 105.651C174.249 118.291 204.252 142.238 230.178 174.503C256.103 206.769 273.028 241.225 279.44 270.841C285.856 300.473 281.737 325.178 265.706 338.059Z" stroke="url(#paint11_linear_161_911)" stroke-width="0.5"/>
<path d="M259.209 343.278C243.178 356.16 218.166 354.863 190.611 342.216C163.071 329.577 133.067 305.63 107.142 273.364C81.2158 241.099 64.2917 206.643 57.8791 177.027C51.463 147.395 55.5826 122.69 71.6136 109.809C87.6447 96.9277 112.657 98.2247 140.212 110.871C167.753 123.511 197.756 147.457 223.682 179.723C249.607 211.989 266.531 246.444 272.944 276.06C279.36 305.693 275.24 330.397 259.209 343.278Z" stroke="url(#paint12_linear_161_911)" stroke-width="0.5"/>
<path d="M252.713 348.498C236.682 361.379 211.67 360.082 184.115 347.436C156.574 334.796 126.571 310.85 100.645 278.584C74.7197 246.319 57.7956 211.863 51.383 182.247C44.967 152.614 49.0865 127.91 65.1175 115.029C81.1486 102.147 106.161 103.444 133.716 116.091C161.256 128.73 191.26 152.677 217.185 184.943C243.111 217.208 260.035 251.664 266.448 281.28C272.864 310.912 268.744 335.617 252.713 348.498Z" stroke="url(#paint13_linear_161_911)" stroke-width="0.5"/>
<path d="M246.217 353.718C230.186 366.599 205.174 365.302 177.619 352.656C150.078 340.016 120.075 316.069 94.1494 283.804C68.2236 251.538 51.2995 217.082 44.8869 187.466C38.4709 157.834 42.5904 133.129 58.6214 120.248C74.6525 107.367 99.6646 108.664 127.22 121.311C154.76 133.95 184.764 157.897 210.689 190.162C236.615 222.428 253.539 256.884 259.952 286.5C266.368 316.132 262.248 340.837 246.217 353.718Z" stroke="url(#paint14_linear_161_911)" stroke-width="0.5"/>
<defs>
<linearGradient id="paint0_linear_161_911" x1="301.83" y1="116.93" x2="184.9" y2="210.884" gradientUnits="userSpaceOnUse">
<stop stop-color="#FF7A00"/>
<stop offset="1" stop-color="#F8139C"/>
</linearGradient>
<linearGradient id="paint1_linear_161_911" x1="295.333" y1="122.149" x2="178.404" y2="216.104" gradientUnits="userSpaceOnUse">
<stop stop-color="#FF7A00"/>
<stop offset="1" stop-color="#F8139C"/>
</linearGradient>
<linearGradient id="paint2_linear_161_911" x1="288.837" y1="127.369" x2="171.908" y2="221.324" gradientUnits="userSpaceOnUse">
<stop stop-color="#FF7A00"/>
<stop offset="1" stop-color="#F8139C"/>
</linearGradient>
<linearGradient id="paint3_linear_161_911" x1="282.341" y1="132.589" x2="165.412" y2="226.543" gradientUnits="userSpaceOnUse">
<stop stop-color="#FF7A00"/>
<stop offset="1" stop-color="#F8139C"/>
</linearGradient>
<linearGradient id="paint4_linear_161_911" x1="275.845" y1="137.809" x2="158.915" y2="231.763" gradientUnits="userSpaceOnUse">
<stop stop-color="#FF7A00"/>
<stop offset="1" stop-color="#F8139C"/>
</linearGradient>
<linearGradient id="paint5_linear_161_911" x1="269.349" y1="143.028" x2="152.419" y2="236.983" gradientUnits="userSpaceOnUse">
<stop stop-color="#FF7A00"/>
<stop offset="1" stop-color="#F8139C"/>
</linearGradient>
<linearGradient id="paint6_linear_161_911" x1="262.853" y1="148.248" x2="145.923" y2="242.203" gradientUnits="userSpaceOnUse">
<stop stop-color="#FF7A00"/>
<stop offset="1" stop-color="#F8139C"/>
</linearGradient>
<linearGradient id="paint7_linear_161_911" x1="256.357" y1="153.468" x2="139.427" y2="247.422" gradientUnits="userSpaceOnUse">
<stop stop-color="#FF7A00"/>
<stop offset="1" stop-color="#F8139C"/>
</linearGradient>
<linearGradient id="paint8_linear_161_911" x1="249.861" y1="158.687" x2="132.931" y2="252.642" gradientUnits="userSpaceOnUse">
<stop stop-color="#FF7A00"/>
<stop offset="1" stop-color="#F8139C"/>
</linearGradient>
<linearGradient id="paint9_linear_161_911" x1="243.365" y1="163.907" x2="126.435" y2="257.862" gradientUnits="userSpaceOnUse">
<stop stop-color="#FF7A00"/>
<stop offset="1" stop-color="#F8139C"/>
</linearGradient>
<linearGradient id="paint10_linear_161_911" x1="236.869" y1="169.127" x2="119.939" y2="263.081" gradientUnits="userSpaceOnUse">
<stop stop-color="#FF7A00"/>
<stop offset="1" stop-color="#F8139C"/>
</linearGradient>
<linearGradient id="paint11_linear_161_911" x1="230.372" y1="174.347" x2="113.443" y2="268.301" gradientUnits="userSpaceOnUse">
<stop stop-color="#FF7A00"/>
<stop offset="1" stop-color="#F8139C"/>
</linearGradient>
<linearGradient id="paint12_linear_161_911" x1="223.876" y1="179.566" x2="106.947" y2="273.521" gradientUnits="userSpaceOnUse">
<stop stop-color="#FF7A00"/>
<stop offset="1" stop-color="#F8139C"/>
</linearGradient>
<linearGradient id="paint13_linear_161_911" x1="217.38" y1="184.786" x2="100.451" y2="278.741" gradientUnits="userSpaceOnUse">
<stop stop-color="#FF7A00"/>
<stop offset="1" stop-color="#F8139C"/>
</linearGradient>
<linearGradient id="paint14_linear_161_911" x1="210.884" y1="190.006" x2="93.9545" y2="283.96" gradientUnits="userSpaceOnUse">
<stop stop-color="#FF7A00"/>
<stop offset="1" stop-color="#F8139C"/>
</linearGradient>
</defs>
</svg>
