<svg width="298" height="296" viewBox="0 0 298 296" fill="none" xmlns="http://www.w3.org/2000/svg">
<path d="M-3.77026 25.305C27.5297 22.755 56.4197 11.375 87.9497 8.695C110.25 6.805 131.9 1.635 154.35 0.945002C214.64 -0.914998 275.32 0.905002 335.64 0.945002" stroke="url(#paint0_linear_161_1114)" stroke-miterlimit="10"/>
<path d="M-3.8103 30.1252C27.1797 27.1452 56.3597 17.4952 87.4897 14.6552C110.24 12.5752 131.96 6.4752 154.9 5.7552C214.82 3.8652 275.67 5.9352 335.65 6.3852" stroke="url(#paint1_linear_161_1114)" stroke-miterlimit="10"/>
<path d="M-3.93018 33.9847C26.4998 31.1047 56.3498 24.1947 86.7598 20.9047C110.38 18.3447 132.38 10.3347 156.31 9.58469C182.25 8.76469 207.69 13.3847 233.56 13.6547C267.61 14.0147 301.61 11.5847 335.66 11.8247" stroke="url(#paint2_linear_161_1114)" stroke-miterlimit="10"/>
<path d="M-4.11011 37.0551C25.6299 34.6851 56.2699 31.2851 85.7999 27.3951C110.64 24.1251 133.07 13.3651 158.4 12.6051C184.41 11.8251 209.13 19.545 234.94 20.595C268.54 21.965 302.05 17.2551 335.64 17.2551" stroke="url(#paint3_linear_161_1114)" stroke-miterlimit="10"/>
<path d="M-4.32983 39.4949C24.9602 37.9249 55.6402 38.005 84.6902 34.055C111.08 30.465 133.95 15.6649 161.07 14.9749C187.27 14.3149 210.97 25.6549 236.73 27.8149C269.67 30.5749 302.73 23.0749 335.65 22.6849" stroke="url(#paint4_linear_161_1114)" stroke-miterlimit="10"/>
<path d="M-4.59058 41.485C24.1294 40.945 55.0294 45.765 83.4394 40.865C111.379 36.055 135.139 17.375 164.119 16.895C190.649 16.455 213.069 31.765 238.779 35.265C270.819 39.635 303.619 29.015 335.639 28.125" stroke="url(#paint5_linear_161_1114)" stroke-miterlimit="10"/>
<path d="M-4.86987 43.185C23.5301 43.795 53.9201 53.665 82.1201 47.755C111.52 41.605 136.64 18.625 167.44 18.515C194.41 18.415 215.38 37.845 241.02 42.845C271.96 48.875 304.7 35.005 335.64 33.555" stroke="url(#paint6_linear_161_1114)" stroke-miterlimit="10"/>
<path d="M-5.15015 44.7746C23.2699 46.6146 52.2399 61.6746 80.7699 54.6946C111.63 47.1446 138.25 20.1646 170.87 20.0346C198.21 19.9246 217.98 43.9846 243.35 50.4946C273.11 58.1446 305.87 41.0046 335.65 39.0046" stroke="url(#paint7_linear_161_1114)" stroke-miterlimit="10"/>
<path d="M-5.44019 46.405C23.2798 49.515 50.0598 69.715 79.4198 61.605C111.55 52.725 140 21.535 174.24 21.585C202 21.625 220.56 50.125 245.62 58.105C274.27 67.225 306.97 46.945 335.64 44.435" stroke="url(#paint8_linear_161_1114)" stroke-miterlimit="10"/>
<path d="M-5.7002 48.2648C23.4798 52.5948 47.6198 77.7248 78.1498 68.4548C111.38 58.3648 141.76 23.0948 177.43 23.3648C205.62 23.5748 223.03 56.3248 247.77 65.6148C275.51 76.0348 307.92 52.8348 335.65 49.8748" stroke="url(#paint9_linear_161_1114)" stroke-miterlimit="10"/>
<path d="M-5.94019 50.5048C23.7798 55.9048 45.1198 85.5348 76.9798 75.1848C111.18 64.0748 143.35 25.0448 180.27 25.5448C208.93 25.9348 225.18 62.5348 249.68 72.9448C276.77 84.4548 308.65 58.6248 335.65 55.3148" stroke="url(#paint10_linear_161_1114)" stroke-miterlimit="10"/>
<path d="M-6.14014 53.305C24.1199 59.485 42.7799 93.015 75.9499 81.745C92.7999 76.025 109.08 64.535 124.12 55.405C140.15 45.665 162.59 27.915 182.61 28.285C211.84 28.825 226.81 68.715 251.24 80.005C277.97 92.355 309.13 64.295 335.65 60.745" stroke="url(#paint11_linear_161_1114)" stroke-miterlimit="10"/>
<path d="M-6.28027 56.8252C24.5497 63.3852 40.7597 100.005 75.1297 88.0952C92.4397 82.0952 109.24 69.8552 124.6 60.2752C140.78 50.1752 163.87 31.3352 184.31 31.7752C214.23 32.4152 227.74 74.8352 252.35 86.7352C279.04 99.6352 309.33 69.8152 335.65 66.1852" stroke="url(#paint12_linear_161_1114)" stroke-miterlimit="10"/>
<path d="M-6.36011 61.245C25.0799 67.645 39.1599 106.375 74.5499 94.175C92.1499 88.105 109.36 75.235 124.86 65.395C141.22 55.015 164.4 35.715 185.2 36.165C216 36.845 227.78 80.845 252.9 93.025C279.89 106.115 309.21 75.135 335.64 71.615" stroke="url(#paint13_linear_161_1114)" stroke-miterlimit="10"/>
<path d="M-6.45972 66.6155C24.8603 73.0255 39.1403 111.676 74.3303 99.3856C92.0003 93.2156 109.28 80.5455 124.96 70.7555C141.37 60.5155 164.71 41.2855 185.43 41.5555C216.33 41.9655 227.75 86.4855 252.86 98.6155C280.15 111.806 309 80.4355 335.66 77.0455" stroke="url(#paint14_linear_161_1114)" stroke-miterlimit="10"/>
<path d="M-7.1001 72.3748C23.7199 78.9348 39.9899 115.295 74.2099 103.275C91.9499 97.0448 109.19 85.3148 125.26 75.8948C141.79 66.2048 165.76 47.3948 186.14 47.5448C216.34 47.7748 228.12 92.0148 252.51 104.065C279.79 117.545 308.93 85.8748 335.65 82.4948" stroke="url(#paint15_linear_161_1114)" stroke-miterlimit="10"/>
<path d="M-8.2605 78.4045C22.3695 84.6245 40.6295 117.605 74.0495 106.315C91.9095 100.275 109.27 89.6145 125.77 80.7645C142.59 71.7445 167.239 53.7545 187.389 54.0145C216.889 54.3845 228.279 97.7045 251.969 109.685C279.129 123.415 308.929 91.3345 335.639 87.9345" stroke="url(#paint16_linear_161_1114)" stroke-miterlimit="10"/>
<path d="M-9.84058 84.6452C20.7494 90.1352 41.1694 118.865 73.8694 108.675C91.8994 103.055 109.489 93.5452 126.449 85.4552C143.719 77.2252 169.019 60.4252 189.049 60.9352C217.879 61.6852 228.259 103.525 251.299 115.435C278.269 129.375 309.019 96.7852 335.639 93.3652" stroke="url(#paint17_linear_161_1114)" stroke-miterlimit="10"/>
<path d="M-11.7498 91.0554C18.8402 95.5154 41.6302 119.375 73.6402 110.535C91.8802 105.505 109.76 97.2354 127.21 90.0554C145.03 82.7254 170.94 67.3954 190.95 68.3054C219.19 69.5854 227.98 109.595 250.5 121.325C277.37 135.325 309.02 102.275 335.65 98.7954" stroke="url(#paint18_linear_161_1114)" stroke-miterlimit="10"/>
<path d="M-13.8699 97.575C16.6901 100.795 42.0201 119.405 73.3901 112.065C91.8701 107.745 110.08 100.785 127.99 94.655C146.44 88.345 172.86 74.695 192.93 76.085C221.31 78.045 226.6 116.675 249.61 127.335C277.83 140.415 307.85 107.955 335.66 104.245" stroke="url(#paint19_linear_161_1114)" stroke-miterlimit="10"/>
<path d="M-16.1199 104.165C12.7101 105.905 39.9201 118.875 69.0001 114.215C93.1801 110.345 116.89 102.435 140.5 96.1051C156.38 91.8551 177.45 83.0852 194.21 85.0252C223.26 88.3852 225.99 124.865 251.02 134.625C278.25 145.255 308.86 113.205 335.65 109.685" stroke="url(#paint20_linear_161_1114)" stroke-miterlimit="10"/>
<path d="M-18.4001 110.755C10.7399 111.285 39.4499 118.935 68.5999 115.395C93.0299 112.425 117.19 106.505 141.3 101.705C157.7 98.4451 178.88 91.1551 195.79 93.4051C223.77 97.1251 225.82 131.175 249.91 140.685C277.04 151.395 308.88 118.705 335.64 115.115" stroke="url(#paint21_linear_161_1114)" stroke-miterlimit="10"/>
<path d="M-20.5906 117.315C8.98942 116.705 38.6594 119.205 68.1894 116.755C92.8494 114.715 117.379 110.795 141.899 107.565C158.829 105.335 179.909 99.5849 197.039 102.105C223.929 106.055 225.629 137.625 248.829 146.775C275.949 157.475 308.859 124.215 335.649 120.555" stroke="url(#paint22_linear_161_1114)" stroke-miterlimit="10"/>
<path d="M-22.6101 123.785C7.52989 122.165 37.6099 119.835 67.7599 118.465C92.5999 117.335 117.4 115.395 142.21 113.735C159.62 112.565 180.4 108.355 197.79 111.075C223.62 115.105 225.4 144.195 247.77 152.855C275.06 163.435 308.71 129.725 335.66 125.995" stroke="url(#paint23_linear_161_1114)" stroke-miterlimit="10"/>
<path d="M-24.3601 130.105C6.35989 127.705 36.4299 121.015 67.3099 120.695C92.2499 120.445 117.19 120.415 142.13 120.275C159.95 120.175 180.23 117.475 197.9 120.285C222.74 124.245 225.12 150.855 246.77 158.895C274.49 169.185 308.34 135.255 335.65 131.425" stroke="url(#paint24_linear_161_1114)" stroke-miterlimit="10"/>
<path d="M-25.7302 136.245C5.50978 133.385 35.2898 122.965 66.8498 123.645C109.12 124.565 155.47 123.265 197.22 129.745C221.14 133.465 224.76 157.645 245.87 164.885C274.36 174.665 307.71 140.795 335.64 136.855" stroke="url(#paint25_linear_161_1114)" stroke-miterlimit="10"/>
<path d="M-26.6199 142.135C3.67013 139.415 32.0701 126.335 62.7201 127.275C106.53 128.615 152.83 133.425 196.25 139.275C219.61 142.425 225.73 166.305 247.39 171.335C276.89 178.195 306.86 146.245 335.66 142.295" stroke="url(#paint26_linear_161_1114)" stroke-miterlimit="10"/>
<path d="M-26.9402 147.735C3.59982 145.505 31.4398 130.525 62.3698 132.105C106 134.325 149.95 144.285 193.37 149.205C216.36 151.815 225.27 173.025 246.9 177.045C277.65 182.755 305.78 151.805 335.64 147.735" stroke="url(#paint27_linear_161_1114)" stroke-miterlimit="10"/>
<path d="M-26.5906 153.185C3.72942 150.485 32.4594 136.835 63.1394 138.395C105.619 140.545 149.029 148.645 191.229 154.015C214.189 156.935 225.479 177.785 247.359 181.685C277.709 187.095 306.199 157.555 335.649 153.185" stroke="url(#paint28_linear_161_1114)" stroke-miterlimit="10"/>
<path d="M-25.5906 158.635C5.95942 155.765 36.5894 144.155 68.4594 146.105C107.999 148.525 148.739 153.015 187.979 158.395C210.829 161.525 224.269 179.985 245.959 184.705C276.659 191.375 305.929 163.135 335.649 158.615" stroke="url(#paint29_linear_161_1114)" stroke-miterlimit="10"/>
<path d="M-24.0798 164.105C7.61017 161.635 39.0802 153.265 70.9502 154.475C108.47 155.895 147.52 157.715 184.77 162.345C208.36 165.275 224.65 182.935 247.35 187.335C277.84 193.235 306.02 168.265 335.64 164.055" stroke="url(#paint30_linear_161_1114)" stroke-miterlimit="10"/>
<path d="M-22.1401 169.575C45.3599 165.855 113.67 159.225 181.29 166.085C205.95 168.585 225.13 185.215 249.11 189.265C279.18 194.345 306.29 173.135 335.65 169.485" stroke="url(#paint31_linear_161_1114)" stroke-miterlimit="10"/>
<path d="M-19.9001 175.055C12.6199 174.225 45.1599 174.525 77.6699 173.265C110.46 171.995 144.87 167.465 177.6 169.775C203.51 171.605 225.8 186.225 251.11 190.715C280.02 195.835 307.21 177.775 335.65 174.925" stroke="url(#paint32_linear_161_1114)" stroke-miterlimit="10"/>
<path d="M-17.4705 180.535C15.4495 180.805 48.6895 186.255 81.5495 183.325C111.88 180.615 143.38 172.545 173.84 173.575C201.1 174.495 226.52 187.615 253.29 191.855C281.33 196.295 307.89 182.325 335.65 180.355" stroke="url(#paint33_linear_161_1114)" stroke-miterlimit="10"/>
<path d="M-14.9502 186.025C18.0798 187.435 52.6398 198.365 85.5698 193.575C113.56 189.505 141.74 177.835 170.11 177.635C198.73 177.435 227.27 189.115 255.54 192.895C282.62 196.525 308.68 186.855 335.65 185.795" stroke="url(#paint34_linear_161_1114)" stroke-miterlimit="10"/>
<path d="M-12.4502 191.505C21.2098 194.105 58.9998 211.135 92.4198 203.145C116.56 197.375 141.25 182.095 166.2 181.415C194.97 180.625 225.86 190.185 254.47 193.635C281.76 196.925 308.36 191.445 335.65 191.245" stroke="url(#paint35_linear_161_1114)" stroke-miterlimit="10"/>
<path d="M-10.0906 196.985C23.6994 200.605 62.4494 222.035 96.0494 213.055C118.799 206.975 138.789 187.975 162.749 186.425C192.759 184.475 226.409 192.475 256.479 195.125C282.849 197.445 309.219 196.035 335.649 196.665" stroke="url(#paint36_linear_161_1114)" stroke-miterlimit="10"/>
<path d="M-7.98022 202.465C24.9798 206.785 66.6898 233.415 99.3598 222.645C120.65 215.625 136.62 194.505 159.72 192.215C190.88 189.135 226.88 195.365 258.33 197.115C284.12 198.555 309.85 200.805 335.64 202.105" stroke="url(#paint37_linear_161_1114)" stroke-miterlimit="10"/>
<path d="M-6.23022 207.935C25.9098 212.665 70.3798 243.785 102.2 231.725C122.46 224.045 134.56 201.775 157.25 198.955C189.57 194.935 227.17 199.025 259.94 199.795C285.58 200.395 310.16 205.795 335.64 207.555" stroke="url(#paint38_linear_161_1114)" stroke-miterlimit="10"/>
<path d="M-4.94019 213.395C16.4798 216.685 34.7298 224.535 54.7898 232.385C70.0298 238.355 88.1098 246.705 104.43 240.115C124.11 232.165 132.85 209.855 155.47 206.785C189.05 202.215 227.17 203.665 261.25 203.335C287.12 203.085 310.2 211.035 335.65 212.985" stroke="url(#paint39_linear_161_1114)" stroke-miterlimit="10"/>
<path d="M-4.23022 218.845C17.5898 222.085 35.6698 230.485 55.8898 238.885C70.6598 245.015 89.6698 254.005 105.89 247.645C125.43 239.985 131.75 218.835 154.5 215.875C189.42 211.345 226.85 209.495 262.14 207.925C288.42 206.765 310.04 216.605 335.65 218.405" stroke="url(#paint40_linear_161_1114)" stroke-miterlimit="10"/>
<path d="M-4.20972 224.275C17.6803 227.445 35.7103 235.945 55.9603 244.415C70.6403 250.555 89.8903 259.535 106.14 253.595C125.68 246.455 131.7 226.635 154.31 223.845C189.75 219.475 226.43 215.685 262.12 213.315C288.69 211.545 309.83 222.155 335.65 223.845" stroke="url(#paint41_linear_161_1114)" stroke-miterlimit="10"/>
<path d="M-4.86987 229.705C16.7701 232.935 34.9601 241.065 55.1101 249.185C69.9601 255.165 88.8801 263.805 105.17 258.035C124.57 251.175 131.82 232.255 153.92 229.285C188.81 224.585 224.77 220.585 259.91 217.705C287.21 215.465 309.09 226.965 335.64 229.285" stroke="url(#paint42_linear_161_1114)" stroke-miterlimit="10"/>
<path d="M-6.11987 235.115C26.6401 239.875 70.4701 272.685 103.47 261.785C122.8 255.405 131.66 237.885 153.21 234.725C187.23 229.745 221.79 224.955 255.99 221.235C284.45 218.145 307.95 231.445 335.64 234.725" stroke="url(#paint43_linear_161_1114)" stroke-miterlimit="10"/>
<path d="M-7.8501 240.525C25.3699 245.005 67.6899 274.945 101.15 264.965C120.45 259.215 131.26 243.515 152.22 240.165C185.06 234.925 217.89 228.985 250.81 224.225C280.43 219.935 306.8 235.775 335.65 240.165" stroke="url(#paint44_linear_161_1114)" stroke-miterlimit="10"/>
<path d="M-9.94019 245.915C23.8398 249.945 64.3398 276.535 98.3798 267.705C117.52 262.735 131.01 249.605 151.03 245.605C182.27 239.355 213.51 232.865 244.83 226.985C275.3 221.265 305.89 240.135 335.65 245.605" stroke="url(#paint45_linear_161_1114)" stroke-miterlimit="10"/>
<path d="M-12.2803 251.315C22.0597 254.735 60.7097 277.685 95.2797 270.145C114.41 265.975 130.16 255.005 149.7 251.035C179.49 244.985 208.92 236.775 238.51 229.825C269.38 222.565 305.33 244.665 335.65 251.035" stroke="url(#paint46_linear_161_1114)" stroke-miterlimit="10"/>
<path d="M-14.7703 256.705C19.4797 259.305 54.9997 277.485 89.4697 272.785C109.48 270.055 127.9 259.705 147.97 255.935C177.53 250.385 205.73 238.115 235.21 232.255C266.11 226.115 305.34 249.555 335.65 256.475" stroke="url(#paint47_linear_161_1114)" stroke-miterlimit="10"/>
<path d="M-17.2898 262.095C17.0302 263.935 51.6102 278.535 86.1002 274.925C106.2 272.815 126.48 265.065 146.41 261.255C174.7 255.845 201.39 242.605 229.46 236.165C246.43 232.265 262.85 239.815 279.02 245.165C297.83 251.385 316.37 257.305 335.66 261.925" stroke="url(#paint48_linear_161_1114)" stroke-miterlimit="10"/>
<path d="M-19.7402 267.485C14.4898 268.595 48.4798 279.765 82.8098 277.155C103.15 275.615 124.87 270.375 144.9 266.615C172.01 261.525 197.57 245.185 224.76 241.145C259.15 236.035 301.8 259.195 335.64 267.355" stroke="url(#paint49_linear_161_1114)" stroke-miterlimit="10"/>
<path d="M-21.9998 272.875C12.0202 273.335 45.6902 281.345 79.7702 279.615C100.5 278.565 123.16 275.585 143.57 272.015C170.14 267.375 195.05 251.525 221.64 247.525C256.68 242.255 301.06 264.745 335.64 272.785" stroke="url(#paint50_linear_161_1114)" stroke-miterlimit="10"/>
<path d="M-23.9597 278.275C31.8203 278.225 86.8003 285.805 142.47 277.495C168.97 273.535 194.06 259.235 220.55 255.645C256.27 250.815 300.3 270.745 335.64 278.215" stroke="url(#paint51_linear_161_1114)" stroke-miterlimit="10"/>
<path d="M-25.5105 283.685C29.9395 283.135 86.8095 290.035 142.13 283.655C169.78 280.465 196.74 267.575 224.49 265.245C259.89 262.275 300.759 277.605 335.639 283.655" stroke="url(#paint52_linear_161_1114)" stroke-miterlimit="10"/>
<path d="M-26.5398 289.105C29.3002 288.535 85.7602 292.505 141.54 289.105C170.79 287.315 199.82 279.325 229.1 278.085C264.1 276.595 300.86 285.235 335.64 289.105" stroke="url(#paint53_linear_161_1114)" stroke-miterlimit="10"/>
<path d="M-26.9402 294.535C93.9198 294.415 214.8 293.415 335.65 294.535" stroke="url(#paint54_linear_161_1114)" stroke-miterlimit="10"/>
<defs>
<linearGradient id="paint0_linear_161_1114" x1="165.935" y1="0.109375" x2="165.935" y2="25.305" gradientUnits="userSpaceOnUse">
<stop stop-color="#781963"/>
<stop offset="1" stop-color="#2D7FDE" stop-opacity="0.54"/>
</linearGradient>
<linearGradient id="paint1_linear_161_1114" x1="165.92" y1="4.97266" x2="165.92" y2="30.1252" gradientUnits="userSpaceOnUse">
<stop stop-color="#781963"/>
<stop offset="1" stop-color="#2D7FDE" stop-opacity="0.54"/>
</linearGradient>
<linearGradient id="paint2_linear_161_1114" x1="165.865" y1="9.4873" x2="165.865" y2="33.9847" gradientUnits="userSpaceOnUse">
<stop stop-color="#781963"/>
<stop offset="1" stop-color="#2D7FDE" stop-opacity="0.54"/>
</linearGradient>
<linearGradient id="paint3_linear_161_1114" x1="165.765" y1="12.5498" x2="165.765" y2="37.0551" gradientUnits="userSpaceOnUse">
<stop stop-color="#781963"/>
<stop offset="1" stop-color="#2D7FDE" stop-opacity="0.54"/>
</linearGradient>
<linearGradient id="paint4_linear_161_1114" x1="165.66" y1="14.9473" x2="165.66" y2="39.4949" gradientUnits="userSpaceOnUse">
<stop stop-color="#781963"/>
<stop offset="1" stop-color="#2D7FDE" stop-opacity="0.54"/>
</linearGradient>
<linearGradient id="paint5_linear_161_1114" x1="165.524" y1="16.8857" x2="165.524" y2="43.085" gradientUnits="userSpaceOnUse">
<stop stop-color="#781963"/>
<stop offset="1" stop-color="#2D7FDE" stop-opacity="0.54"/>
</linearGradient>
<linearGradient id="paint6_linear_161_1114" x1="165.385" y1="18.5146" x2="165.385" y2="49.6334" gradientUnits="userSpaceOnUse">
<stop stop-color="#781963"/>
<stop offset="1" stop-color="#2D7FDE" stop-opacity="0.54"/>
</linearGradient>
<linearGradient id="paint7_linear_161_1114" x1="165.25" y1="20.0342" x2="165.25" y2="56.5288" gradientUnits="userSpaceOnUse">
<stop stop-color="#781963"/>
<stop offset="1" stop-color="#2D7FDE" stop-opacity="0.54"/>
</linearGradient>
<linearGradient id="paint8_linear_161_1114" x1="165.1" y1="21.585" x2="165.1" y2="63.5112" gradientUnits="userSpaceOnUse">
<stop stop-color="#781963"/>
<stop offset="1" stop-color="#2D7FDE" stop-opacity="0.54"/>
</linearGradient>
<linearGradient id="paint9_linear_161_1114" x1="164.975" y1="23.3633" x2="164.975" y2="70.4917" gradientUnits="userSpaceOnUse">
<stop stop-color="#781963"/>
<stop offset="1" stop-color="#2D7FDE" stop-opacity="0.54"/>
</linearGradient>
<linearGradient id="paint10_linear_161_1114" x1="164.855" y1="25.54" x2="164.855" y2="77.3613" gradientUnits="userSpaceOnUse">
<stop stop-color="#781963"/>
<stop offset="1" stop-color="#2D7FDE" stop-opacity="0.54"/>
</linearGradient>
<linearGradient id="paint11_linear_161_1114" x1="164.755" y1="28.2793" x2="164.755" y2="84.0426" gradientUnits="userSpaceOnUse">
<stop stop-color="#781963"/>
<stop offset="1" stop-color="#2D7FDE" stop-opacity="0.54"/>
</linearGradient>
<linearGradient id="paint12_linear_161_1114" x1="164.685" y1="31.7676" x2="164.685" y2="90.4598" gradientUnits="userSpaceOnUse">
<stop stop-color="#781963"/>
<stop offset="1" stop-color="#2D7FDE" stop-opacity="0.54"/>
</linearGradient>
<linearGradient id="paint13_linear_161_1114" x1="164.64" y1="36.1572" x2="164.64" y2="96.5362" gradientUnits="userSpaceOnUse">
<stop stop-color="#781963"/>
<stop offset="1" stop-color="#2D7FDE" stop-opacity="0.54"/>
</linearGradient>
<linearGradient id="paint14_linear_161_1114" x1="164.6" y1="41.5527" x2="164.6" y2="101.836" gradientUnits="userSpaceOnUse">
<stop stop-color="#781963"/>
<stop offset="1" stop-color="#2D7FDE" stop-opacity="0.54"/>
</linearGradient>
<linearGradient id="paint15_linear_161_1114" x1="164.275" y1="47.5439" x2="164.275" y2="107.387" gradientUnits="userSpaceOnUse">
<stop stop-color="#781963"/>
<stop offset="1" stop-color="#2D7FDE" stop-opacity="0.54"/>
</linearGradient>
<linearGradient id="paint16_linear_161_1114" x1="163.689" y1="54.0117" x2="163.689" y2="113.083" gradientUnits="userSpaceOnUse">
<stop stop-color="#781963"/>
<stop offset="1" stop-color="#2D7FDE" stop-opacity="0.54"/>
</linearGradient>
<linearGradient id="paint17_linear_161_1114" x1="162.899" y1="60.9238" x2="162.899" y2="118.884" gradientUnits="userSpaceOnUse">
<stop stop-color="#781963"/>
<stop offset="1" stop-color="#2D7FDE" stop-opacity="0.54"/>
</linearGradient>
<linearGradient id="paint18_linear_161_1114" x1="161.95" y1="68.2666" x2="161.95" y2="124.764" gradientUnits="userSpaceOnUse">
<stop stop-color="#781963"/>
<stop offset="1" stop-color="#2D7FDE" stop-opacity="0.54"/>
</linearGradient>
<linearGradient id="paint19_linear_161_1114" x1="160.895" y1="75.9863" x2="160.895" y2="130.424" gradientUnits="userSpaceOnUse">
<stop stop-color="#781963"/>
<stop offset="1" stop-color="#2D7FDE" stop-opacity="0.54"/>
</linearGradient>
<linearGradient id="paint20_linear_161_1114" x1="159.765" y1="84.749" x2="159.765" y2="136.776" gradientUnits="userSpaceOnUse">
<stop stop-color="#781963"/>
<stop offset="1" stop-color="#2D7FDE" stop-opacity="0.54"/>
</linearGradient>
<linearGradient id="paint21_linear_161_1114" x1="158.62" y1="92.9814" x2="158.62" y2="142.83" gradientUnits="userSpaceOnUse">
<stop stop-color="#781963"/>
<stop offset="1" stop-color="#2D7FDE" stop-opacity="0.54"/>
</linearGradient>
<linearGradient id="paint22_linear_161_1114" x1="157.529" y1="101.479" x2="157.529" y2="148.887" gradientUnits="userSpaceOnUse">
<stop stop-color="#781963"/>
<stop offset="1" stop-color="#2D7FDE" stop-opacity="0.54"/>
</linearGradient>
<linearGradient id="paint23_linear_161_1114" x1="156.525" y1="110.176" x2="156.525" y2="154.901" gradientUnits="userSpaceOnUse">
<stop stop-color="#781963"/>
<stop offset="1" stop-color="#2D7FDE" stop-opacity="0.54"/>
</linearGradient>
<linearGradient id="paint24_linear_161_1114" x1="155.645" y1="119.011" x2="155.645" y2="160.829" gradientUnits="userSpaceOnUse">
<stop stop-color="#781963"/>
<stop offset="1" stop-color="#2D7FDE" stop-opacity="0.54"/>
</linearGradient>
<linearGradient id="paint25_linear_161_1114" x1="154.955" y1="123.613" x2="154.955" y2="166.65" gradientUnits="userSpaceOnUse">
<stop stop-color="#781963"/>
<stop offset="1" stop-color="#2D7FDE" stop-opacity="0.54"/>
</linearGradient>
<linearGradient id="paint26_linear_161_1114" x1="154.52" y1="127.227" x2="154.52" y2="172.297" gradientUnits="userSpaceOnUse">
<stop stop-color="#781963"/>
<stop offset="1" stop-color="#2D7FDE" stop-opacity="0.54"/>
</linearGradient>
<linearGradient id="paint27_linear_161_1114" x1="154.35" y1="131.988" x2="154.35" y2="177.745" gradientUnits="userSpaceOnUse">
<stop stop-color="#781963"/>
<stop offset="1" stop-color="#2D7FDE" stop-opacity="0.54"/>
</linearGradient>
<linearGradient id="paint28_linear_161_1114" x1="154.529" y1="138.271" x2="154.529" y2="182.344" gradientUnits="userSpaceOnUse">
<stop stop-color="#781963"/>
<stop offset="1" stop-color="#2D7FDE" stop-opacity="0.54"/>
</linearGradient>
<linearGradient id="paint29_linear_161_1114" x1="155.029" y1="145.886" x2="155.029" y2="185.719" gradientUnits="userSpaceOnUse">
<stop stop-color="#781963"/>
<stop offset="1" stop-color="#2D7FDE" stop-opacity="0.54"/>
</linearGradient>
<linearGradient id="paint30_linear_161_1114" x1="155.78" y1="154.356" x2="155.78" y2="188.233" gradientUnits="userSpaceOnUse">
<stop stop-color="#781963"/>
<stop offset="1" stop-color="#2D7FDE" stop-opacity="0.54"/>
</linearGradient>
<linearGradient id="paint31_linear_161_1114" x1="156.755" y1="163.105" x2="156.755" y2="190.047" gradientUnits="userSpaceOnUse">
<stop stop-color="#781963"/>
<stop offset="1" stop-color="#2D7FDE" stop-opacity="0.54"/>
</linearGradient>
<linearGradient id="paint32_linear_161_1114" x1="157.875" y1="169.129" x2="157.875" y2="191.624" gradientUnits="userSpaceOnUse">
<stop stop-color="#781963"/>
<stop offset="1" stop-color="#2D7FDE" stop-opacity="0.54"/>
</linearGradient>
<linearGradient id="paint33_linear_161_1114" x1="159.09" y1="173.484" x2="159.09" y2="192.721" gradientUnits="userSpaceOnUse">
<stop stop-color="#781963"/>
<stop offset="1" stop-color="#2D7FDE" stop-opacity="0.54"/>
</linearGradient>
<linearGradient id="paint34_linear_161_1114" x1="160.35" y1="177.633" x2="160.35" y2="194.781" gradientUnits="userSpaceOnUse">
<stop stop-color="#781963"/>
<stop offset="1" stop-color="#2D7FDE" stop-opacity="0.54"/>
</linearGradient>
<linearGradient id="paint35_linear_161_1114" x1="161.6" y1="181.369" x2="161.6" y2="205.261" gradientUnits="userSpaceOnUse">
<stop stop-color="#781963"/>
<stop offset="1" stop-color="#2D7FDE" stop-opacity="0.54"/>
</linearGradient>
<linearGradient id="paint36_linear_161_1114" x1="162.779" y1="186.122" x2="162.779" y2="215.235" gradientUnits="userSpaceOnUse">
<stop stop-color="#781963"/>
<stop offset="1" stop-color="#2D7FDE" stop-opacity="0.54"/>
</linearGradient>
<linearGradient id="paint37_linear_161_1114" x1="163.83" y1="191.373" x2="163.83" y2="225.19" gradientUnits="userSpaceOnUse">
<stop stop-color="#781963"/>
<stop offset="1" stop-color="#2D7FDE" stop-opacity="0.54"/>
</linearGradient>
<linearGradient id="paint38_linear_161_1114" x1="164.705" y1="197.213" x2="164.705" y2="234.483" gradientUnits="userSpaceOnUse">
<stop stop-color="#781963"/>
<stop offset="1" stop-color="#2D7FDE" stop-opacity="0.54"/>
</linearGradient>
<linearGradient id="paint39_linear_161_1114" x1="165.355" y1="203.329" x2="165.355" y2="242.53" gradientUnits="userSpaceOnUse">
<stop stop-color="#781963"/>
<stop offset="1" stop-color="#2D7FDE" stop-opacity="0.54"/>
</linearGradient>
<linearGradient id="paint40_linear_161_1114" x1="165.71" y1="207.83" x2="165.71" y2="249.823" gradientUnits="userSpaceOnUse">
<stop stop-color="#781963"/>
<stop offset="1" stop-color="#2D7FDE" stop-opacity="0.54"/>
</linearGradient>
<linearGradient id="paint41_linear_161_1114" x1="165.72" y1="213.116" x2="165.72" y2="255.541" gradientUnits="userSpaceOnUse">
<stop stop-color="#781963"/>
<stop offset="1" stop-color="#2D7FDE" stop-opacity="0.54"/>
</linearGradient>
<linearGradient id="paint42_linear_161_1114" x1="165.385" y1="217.417" x2="165.385" y2="259.937" gradientUnits="userSpaceOnUse">
<stop stop-color="#781963"/>
<stop offset="1" stop-color="#2D7FDE" stop-opacity="0.54"/>
</linearGradient>
<linearGradient id="paint43_linear_161_1114" x1="164.76" y1="220.773" x2="164.76" y2="263.99" gradientUnits="userSpaceOnUse">
<stop stop-color="#781963"/>
<stop offset="1" stop-color="#2D7FDE" stop-opacity="0.54"/>
</linearGradient>
<linearGradient id="paint44_linear_161_1114" x1="163.9" y1="223.495" x2="163.9" y2="266.989" gradientUnits="userSpaceOnUse">
<stop stop-color="#781963"/>
<stop offset="1" stop-color="#2D7FDE" stop-opacity="0.54"/>
</linearGradient>
<linearGradient id="paint45_linear_161_1114" x1="162.855" y1="225.917" x2="162.855" y2="269.49" gradientUnits="userSpaceOnUse">
<stop stop-color="#781963"/>
<stop offset="1" stop-color="#2D7FDE" stop-opacity="0.54"/>
</linearGradient>
<linearGradient id="paint46_linear_161_1114" x1="161.685" y1="228.378" x2="161.685" y2="271.656" gradientUnits="userSpaceOnUse">
<stop stop-color="#781963"/>
<stop offset="1" stop-color="#2D7FDE" stop-opacity="0.54"/>
</linearGradient>
<linearGradient id="paint47_linear_161_1114" x1="160.44" y1="231.24" x2="160.44" y2="273.557" gradientUnits="userSpaceOnUse">
<stop stop-color="#781963"/>
<stop offset="1" stop-color="#2D7FDE" stop-opacity="0.54"/>
</linearGradient>
<linearGradient id="paint48_linear_161_1114" x1="159.185" y1="235.088" x2="159.185" y2="275.496" gradientUnits="userSpaceOnUse">
<stop stop-color="#781963"/>
<stop offset="1" stop-color="#2D7FDE" stop-opacity="0.54"/>
</linearGradient>
<linearGradient id="paint49_linear_161_1114" x1="157.95" y1="240.416" x2="157.95" y2="277.549" gradientUnits="userSpaceOnUse">
<stop stop-color="#781963"/>
<stop offset="1" stop-color="#2D7FDE" stop-opacity="0.54"/>
</linearGradient>
<linearGradient id="paint50_linear_161_1114" x1="156.82" y1="246.734" x2="156.82" y2="279.86" gradientUnits="userSpaceOnUse">
<stop stop-color="#781963"/>
<stop offset="1" stop-color="#2D7FDE" stop-opacity="0.54"/>
</linearGradient>
<linearGradient id="paint51_linear_161_1114" x1="155.84" y1="254.899" x2="155.84" y2="281.39" gradientUnits="userSpaceOnUse">
<stop stop-color="#781963"/>
<stop offset="1" stop-color="#2D7FDE" stop-opacity="0.54"/>
</linearGradient>
<linearGradient id="paint52_linear_161_1114" x1="155.064" y1="264.867" x2="155.064" y2="286.379" gradientUnits="userSpaceOnUse">
<stop stop-color="#781963"/>
<stop offset="1" stop-color="#2D7FDE" stop-opacity="0.54"/>
</linearGradient>
<linearGradient id="paint53_linear_161_1114" x1="154.55" y1="277.914" x2="154.55" y2="290.497" gradientUnits="userSpaceOnUse">
<stop stop-color="#781963"/>
<stop offset="1" stop-color="#2D7FDE" stop-opacity="0.54"/>
</linearGradient>
<linearGradient id="paint54_linear_161_1114" x1="154.355" y1="294.01" x2="154.355" y2="294.535" gradientUnits="userSpaceOnUse">
<stop stop-color="#781963"/>
<stop offset="1" stop-color="#2D7FDE" stop-opacity="0.54"/>
</linearGradient>
</defs>
</svg>
