<svg width="215" height="53" viewBox="0 0 215 53" fill="none" xmlns="http://www.w3.org/2000/svg">
<path d="M24.2038 0.796178C24.2038 0.356461 24.5603 0 25 0H31.3694C31.8091 0 32.1656 0.356461 32.1656 0.796178V27.07C32.1656 27.5098 31.8091 27.8662 31.3694 27.8662H21.3926C21.2027 27.8662 21.02 27.7971 20.8713 27.679C19.5127 26.6 17.7934 25.9554 15.9236 25.9554C11.5264 25.9554 7.96178 29.52 7.96178 33.9172C7.96178 38.3143 11.5264 41.8789 15.9236 41.8789C17.875 41.8789 19.6624 41.1769 21.0471 40.0116C21.1987 39.8841 21.3886 39.8089 21.5867 39.8089H31.3694C31.8091 39.8089 32.1656 40.1653 32.1656 40.6051V49.0445C32.1656 49.4843 31.8091 49.8407 31.3694 49.8407H25C24.5603 49.8407 24.2038 49.4843 24.2038 49.0445V48.9395C24.2038 48.318 23.519 47.9298 22.9617 48.2048C20.8395 49.2522 18.4503 49.8407 15.9236 49.8407C7.12922 49.8407 0 42.7115 0 33.9172C0 25.1228 7.12922 17.9936 15.9236 17.9936C18.4503 17.9936 20.8395 18.5821 22.9617 19.6295C23.519 19.9046 24.2038 19.5163 24.2038 18.8949V0.796178Z" fill="white"/>
<rect x="34.0764" y="39.8088" width="7.96178" height="10.0318" rx="1" fill="white"/>
<path d="M15.9016 37.8981C13.6272 37.8981 11.7834 36.0802 11.7834 33.8376C11.7834 31.5951 13.6272 29.7771 15.9016 29.7771H45.8818C48.1562 29.7771 50 31.5951 50 33.8376C50 36.0802 48.1562 37.8981 45.8818 37.8981H15.9016Z" fill="url(#paint0_linear_194_8)"/>
<path d="M34.0895 15.268C34.0976 15.268 34.1037 15.2607 34.1026 15.2527C34.0959 15.206 34.0936 15.158 34.096 15.1089C34.4978 6.94808 41.0432 0.402724 49.2039 0.000929439C49.6431 -0.0206937 50 0.337838 50 0.777555V7.14698C50 7.58669 49.6425 7.93897 49.2049 7.98235C45.4426 8.35537 42.4504 11.3475 42.0774 15.1099C42.0751 15.133 42.072 15.1559 42.068 15.1786C42.0537 15.2597 42.0382 15.3412 42.0382 15.4236V27.0514C42.0382 27.4911 41.6817 27.8476 41.242 27.8476H34.8726C34.4329 27.8476 34.0764 27.4911 34.0764 27.0514V15.281C34.0764 15.2738 34.0823 15.268 34.0895 15.268Z" fill="white"/>
<path d="M64.05 19.85C66.27 19.85 68.21 20.3 69.87 21.2C71.55 22.08 72.84 23.32 73.74 24.92C74.64 26.52 75.09 28.35 75.09 30.41C75.09 32.45 74.63 34.27 73.71 35.87C72.81 37.47 71.52 38.73 69.84 39.65C68.18 40.55 66.25 41 64.05 41H55.68V19.85H64.05ZM63.6 35.81C65.32 35.81 66.67 35.34 67.65 34.4C68.63 33.46 69.12 32.13 69.12 30.41C69.12 28.67 68.63 27.33 67.65 26.39C66.67 25.43 65.32 24.95 63.6 24.95H61.56V35.81H63.6ZM80.7105 22.61C79.6705 22.61 78.8305 22.33 78.1905 21.77C77.5705 21.19 77.2605 20.47 77.2605 19.61C77.2605 18.73 77.5705 18 78.1905 17.42C78.8305 16.84 79.6705 16.55 80.7105 16.55C81.7305 16.55 82.5505 16.84 83.1705 17.42C83.8105 18 84.1305 18.73 84.1305 19.61C84.1305 20.47 83.8105 21.19 83.1705 21.77C82.5505 22.33 81.7305 22.61 80.7105 22.61ZM83.6205 24.17V41H77.7405V24.17H83.6205ZM93.1791 23.96C94.3191 23.96 95.3091 24.19 96.1491 24.65C97.0091 25.11 97.6691 25.73 98.1291 26.51V24.17H104.009V40.82C104.009 42.4 103.709 43.82 103.109 45.08C102.509 46.36 101.569 47.38 100.289 48.14C99.0291 48.9 97.4291 49.28 95.4891 49.28C92.8891 49.28 90.8091 48.67 89.2491 47.45C87.6891 46.23 86.7991 44.57 86.5791 42.47H92.3691C92.4891 43.01 92.7891 43.43 93.2691 43.73C93.7491 44.03 94.3691 44.18 95.1291 44.18C97.1291 44.18 98.1291 43.06 98.1291 40.82V38.66C97.6691 39.44 97.0091 40.06 96.1491 40.52C95.3091 40.98 94.3191 41.21 93.1791 41.21C91.8391 41.21 90.6191 40.86 89.5191 40.16C88.4391 39.46 87.5791 38.46 86.9391 37.16C86.3191 35.84 86.0091 34.31 86.0091 32.57C86.0091 30.83 86.3191 29.31 86.9391 28.01C87.5791 26.71 88.4391 25.71 89.5191 25.01C90.6191 24.31 91.8391 23.96 93.1791 23.96ZM98.1291 32.57C98.1291 31.49 97.8291 30.64 97.2291 30.02C96.6491 29.4 95.9291 29.09 95.0691 29.09C94.1891 29.09 93.4591 29.4 92.8791 30.02C92.2991 30.62 92.0091 31.47 92.0091 32.57C92.0091 33.65 92.2991 34.51 92.8791 35.15C93.4591 35.77 94.1891 36.08 95.0691 36.08C95.9291 36.08 96.6491 35.77 97.2291 35.15C97.8291 34.53 98.1291 33.67 98.1291 32.57ZM110.33 22.61C109.29 22.61 108.45 22.33 107.81 21.77C107.19 21.19 106.88 20.47 106.88 19.61C106.88 18.73 107.19 18 107.81 17.42C108.45 16.84 109.29 16.55 110.33 16.55C111.35 16.55 112.17 16.84 112.79 17.42C113.43 18 113.75 18.73 113.75 19.61C113.75 20.47 113.43 21.19 112.79 21.77C112.17 22.33 111.35 22.61 110.33 22.61ZM113.24 24.17V41H107.36V24.17H113.24ZM130.928 19.85V24.53H122.468V28.25H128.708V32.72H122.468V41H116.588V19.85H130.928ZM149.485 32.39C149.485 32.85 149.455 33.31 149.395 33.77H138.265C138.325 34.69 138.575 35.38 139.015 35.84C139.475 36.28 140.055 36.5 140.755 36.5C141.735 36.5 142.435 36.06 142.855 35.18H149.125C148.865 36.34 148.355 37.38 147.595 38.3C146.855 39.2 145.915 39.91 144.775 40.43C143.635 40.95 142.375 41.21 140.995 41.21C139.335 41.21 137.855 40.86 136.555 40.16C135.275 39.46 134.265 38.46 133.525 37.16C132.805 35.86 132.445 34.33 132.445 32.57C132.445 30.81 132.805 29.29 133.525 28.01C134.245 26.71 135.245 25.71 136.525 25.01C137.825 24.31 139.315 23.96 140.995 23.96C142.655 23.96 144.125 24.3 145.405 24.98C146.685 25.66 147.685 26.64 148.405 27.92C149.125 29.18 149.485 30.67 149.485 32.39ZM143.485 30.92C143.485 30.2 143.245 29.64 142.765 29.24C142.285 28.82 141.685 28.61 140.965 28.61C140.245 28.61 139.655 28.81 139.195 29.21C138.735 29.59 138.435 30.16 138.295 30.92H143.485ZM157.771 18.8V41H151.891V18.8H157.771ZM166.999 18.8V41H161.119V18.8H166.999ZM178.178 41.21C176.498 41.21 174.988 40.86 173.648 40.16C172.328 39.46 171.288 38.46 170.528 37.16C169.768 35.86 169.388 34.33 169.388 32.57C169.388 30.83 169.768 29.31 170.528 28.01C171.308 26.71 172.358 25.71 173.678 25.01C175.018 24.31 176.528 23.96 178.208 23.96C179.888 23.96 181.388 24.31 182.708 25.01C184.048 25.71 185.098 26.71 185.858 28.01C186.638 29.31 187.028 30.83 187.028 32.57C187.028 34.31 186.638 35.84 185.858 37.16C185.098 38.46 184.048 39.46 182.708 40.16C181.368 40.86 179.858 41.21 178.178 41.21ZM178.178 36.11C178.998 36.11 179.678 35.81 180.218 35.21C180.778 34.59 181.058 33.71 181.058 32.57C181.058 31.43 180.778 30.56 180.218 29.96C179.678 29.36 179.008 29.06 178.208 29.06C177.408 29.06 176.738 29.36 176.198 29.96C175.658 30.56 175.388 31.43 175.388 32.57C175.388 33.73 175.648 34.61 176.168 35.21C176.688 35.81 177.358 36.11 178.178 36.11ZM214.29 24.17L210 41H203.4L201.06 30.8L198.63 41H192.06L187.8 24.17H193.65L195.54 35.33L198.03 24.17H204.33L206.91 35.36L208.77 24.17H214.29Z" fill="white"/>
<defs>
<linearGradient id="paint0_linear_194_8" x1="11.7834" y1="33.8376" x2="50" y2="33.8376" gradientUnits="userSpaceOnUse">
<stop stop-color="#F8139C"/>
<stop offset="1" stop-color="#FF7A00"/>
</linearGradient>
</defs>
</svg>
