<svg width="100" height="100" viewBox="0 0 100 100" fill="none" xmlns="http://www.w3.org/2000/svg">
<path d="M48.4076 1.59236C48.4076 0.712922 49.1205 0 50 0H62.7388C63.6182 0 64.3312 0.712922 64.3312 1.59236V54.1401C64.3312 55.0195 63.6182 55.7324 62.7388 55.7324H42.7851C42.4054 55.7324 42.0401 55.5943 41.7427 55.3581C39.0254 53.1999 35.5868 51.9108 31.8471 51.9108C23.0528 51.9108 15.9236 59.04 15.9236 67.8343C15.9236 76.6287 23.0528 83.7579 31.8471 83.7579C35.7499 83.7579 39.3248 82.3538 42.0941 80.0232C42.3973 79.7681 42.7771 79.6178 43.1734 79.6178H62.7388C63.6182 79.6178 64.3312 80.3307 64.3312 81.2101V98.0891C64.3312 98.9685 63.6182 99.6814 62.7388 99.6814H50C49.1205 99.6814 48.4076 98.9685 48.4076 98.0891V97.8789C48.4076 96.636 47.038 95.8595 45.9235 96.4096C41.679 98.5045 36.9005 99.6814 31.8471 99.6814C14.2584 99.6814 0 85.423 0 67.8343C0 50.2457 14.2584 35.9872 31.8471 35.9872C36.9005 35.9872 41.679 37.1642 45.9235 39.259C47.038 39.8091 48.4076 39.0327 48.4076 37.7897V1.59236Z" fill="black"/>
<rect x="68.1528" y="79.6177" width="15.9236" height="20.0637" rx="2" fill="black"/>
<path d="M31.8032 75.7962C27.2544 75.7962 23.5669 72.1603 23.5669 67.6752C23.5669 63.1901 27.2544 59.5542 31.8032 59.5542H91.7636C96.3124 59.5542 100 63.1901 100 67.6752C100 72.1603 96.3124 75.7962 91.7636 75.7962H31.8032Z" fill="url(#paint0_linear_203_38)"/>
<path d="M68.179 30.5359C68.1952 30.5359 68.2075 30.5214 68.2052 30.5054C68.1918 30.4121 68.1872 30.3159 68.192 30.2177C68.9956 13.8962 82.0863 0.805448 98.4079 0.00185888C99.2862 -0.0413875 100 0.675676 100 1.55511V14.294C100 15.1734 99.285 15.8779 98.4099 15.9647C90.8852 16.7107 84.9009 22.695 84.1549 30.2197C84.1503 30.266 84.144 30.3118 84.136 30.3571C84.1074 30.5195 84.0764 30.6824 84.0764 30.8472V54.1028C84.0764 54.9822 83.3635 55.6951 82.484 55.6951H69.7452C68.8658 55.6951 68.1528 54.9822 68.1528 54.1028V30.5621C68.1528 30.5476 68.1646 30.5359 68.179 30.5359Z" fill="black"/>
<defs>
<linearGradient id="paint0_linear_203_38" x1="23.5669" y1="67.6752" x2="100" y2="67.6752" gradientUnits="userSpaceOnUse">
<stop stop-color="#F8139C"/>
<stop offset="1" stop-color="#FF7A00"/>
</linearGradient>
</defs>
</svg>
