<svg width="262" height="327" viewBox="0 0 262 327" fill="none" xmlns="http://www.w3.org/2000/svg">
<path fill-rule="evenodd" clip-rule="evenodd" d="M70.8681 181.531C73.0902 180.862 75.519 180.747 78.0634 181.283C78.206 181.313 78.3479 181.344 78.4898 181.378L104.732 174.075C104.59 174.041 104.448 174.009 104.306 173.979C101.761 173.444 99.3325 173.559 97.1104 174.228L70.8681 181.531Z" fill="url(#paint0_linear_210_893)"/>
<path fill-rule="evenodd" clip-rule="evenodd" d="M78.4898 181.378V181.372L104.732 174.069V174.075L78.4898 181.378Z" fill="url(#paint1_linear_210_893)"/>
<path fill-rule="evenodd" clip-rule="evenodd" d="M78.4898 181.372L215.847 210.258V210.264C215.989 210.29 216.131 210.318 216.273 210.348C226.875 212.577 235.469 225.245 235.469 238.642C235.469 248.824 230.505 256.496 223.469 258.614L249.711 251.311C256.747 249.193 261.712 241.521 261.712 231.339C261.712 217.942 253.117 205.274 242.516 203.045C242.373 203.015 242.231 202.987 242.089 202.961V202.955L104.732 174.069L78.4898 181.372Z" fill="url(#paint2_linear_210_893)"/>
<path fill-rule="evenodd" clip-rule="evenodd" d="M223.469 258.614C221.246 259.283 218.818 259.398 216.273 258.863C216.131 258.833 215.989 258.801 215.847 258.767L242.089 251.464C242.231 251.498 242.373 251.53 242.516 251.56C245.06 252.095 247.489 251.98 249.711 251.311L223.469 258.614Z" fill="url(#paint3_linear_210_893)"/>
<path fill-rule="evenodd" clip-rule="evenodd" d="M215.847 258.767V258.773L242.089 251.47V251.464L215.847 258.767Z" fill="url(#paint4_linear_210_893)"/>
<path fill-rule="evenodd" clip-rule="evenodd" d="M215.847 258.773L78.4898 229.887V229.881C78.3479 229.855 78.206 229.827 78.0634 229.797C67.4616 227.568 58.8673 214.9 58.8673 201.503C58.8673 191.321 63.8314 183.649 70.8681 181.531L97.1104 174.228C90.0738 176.345 85.1097 184.018 85.1097 194.2C85.1097 207.597 93.704 220.264 104.306 222.494C104.448 222.524 104.59 222.552 104.732 222.578V222.584L242.089 251.47L215.847 258.773Z" fill="url(#paint5_linear_210_893)"/>
<path fill-rule="evenodd" clip-rule="evenodd" d="M162.358 259.52C162.794 259.385 163.272 259.36 163.772 259.465L193.96 265.814C196.044 266.252 197.734 268.78 197.734 271.459V322.885C197.734 324.921 196.758 326.459 195.375 326.888L221.617 319.584C223 319.156 223.976 317.617 223.976 315.581V264.156C223.976 261.477 222.286 258.949 220.203 258.511L190.014 252.162C189.514 252.057 189.037 252.082 188.6 252.217L162.358 259.52Z" fill="url(#paint6_linear_210_893)"/>
<path fill-rule="evenodd" clip-rule="evenodd" d="M150.092 183.464C149.655 183.599 149.178 183.624 148.678 183.519L101.391 173.575C100.492 173.385 99.6262 172.782 98.9213 171.914C92.4821 163.985 84.3335 158.344 75.471 156.48C70.886 155.516 66.492 155.643 62.4269 156.713L88.6693 149.41C92.7344 148.34 97.1284 148.212 101.713 149.177C110.576 151.04 118.724 156.682 125.164 164.611C125.869 165.479 126.734 166.082 127.634 166.271L174.92 176.216C175.42 176.321 175.898 176.296 176.334 176.161L150.092 183.464Z" fill="url(#paint7_linear_210_893)"/>
<path fill-rule="evenodd" clip-rule="evenodd" d="M117.075 7.42333C117.512 7.28798 117.989 7.26327 118.489 7.36844L148.678 13.717C150.762 14.1553 152.451 16.6827 152.451 19.3621V179.461C152.451 181.497 151.475 183.035 150.092 183.464L176.334 176.161C177.718 175.732 178.694 174.194 178.694 172.158V12.0589C178.694 9.37947 177.004 6.85202 174.92 6.41381L144.732 0.0652084C144.232 -0.0399626 143.754 -0.0152493 143.317 0.120102L117.075 7.42333Z" fill="url(#paint8_linear_210_893)"/>
<path fill-rule="evenodd" clip-rule="evenodd" d="M62.4269 156.713C48.0143 160.509 37.7355 176.16 37.7355 197.059C37.7355 223.853 54.6302 249.127 75.471 253.509C80.0954 254.482 84.5256 254.344 88.62 253.248L114.862 245.945C110.768 247.041 106.338 247.179 101.713 246.206C80.8726 241.823 63.9778 216.549 63.9778 189.756C63.9778 168.857 74.2566 153.205 88.6693 149.41L62.4269 156.713Z" fill="url(#paint9_linear_210_893)"/>
<path fill-rule="evenodd" clip-rule="evenodd" d="M88.62 253.248C92.7144 252.152 96.473 250.098 99.7545 247.238C100.114 246.925 100.518 246.701 100.95 246.58L127.193 239.277C126.761 239.398 126.356 239.621 125.997 239.934C122.715 242.795 118.957 244.849 114.862 245.945L88.62 253.248Z" fill="url(#paint10_linear_210_893)"/>
<path fill-rule="evenodd" clip-rule="evenodd" d="M100.95 246.58C101.382 246.459 101.842 246.441 102.311 246.54L148.678 256.291C150.762 256.729 152.451 259.257 152.451 261.936V313.362C152.451 315.398 151.475 316.936 150.092 317.365L176.334 310.061C177.718 309.633 178.694 308.094 178.694 306.058V254.633C178.694 251.954 177.004 249.426 174.92 248.988L128.554 239.237C128.084 239.138 127.625 239.156 127.193 239.277L100.95 246.58Z" fill="url(#paint11_linear_210_893)"/>
<path fill-rule="evenodd" clip-rule="evenodd" d="M150.092 317.365C149.655 317.5 149.178 317.525 148.678 317.42L118.489 311.071C116.406 310.633 114.716 308.105 114.716 305.426V304.786C114.716 301.226 111.848 298.319 109.31 298.914L135.553 291.611C138.091 291.016 140.958 293.922 140.958 297.482V298.123C140.958 300.802 142.648 303.33 144.732 303.768L174.92 310.116C175.42 310.221 175.898 310.197 176.334 310.061L150.092 317.365Z" fill="url(#paint12_linear_210_893)"/>
<path fill-rule="evenodd" clip-rule="evenodd" d="M109.31 298.914C109.148 298.952 108.988 299.004 108.829 299.072C106.817 299.925 104.755 300.656 102.647 301.259L128.889 293.955C130.997 293.352 133.06 292.622 135.071 291.768C135.23 291.701 135.391 291.649 135.553 291.611L109.31 298.914Z" fill="url(#paint13_linear_210_893)"/>
<path fill-rule="evenodd" clip-rule="evenodd" d="M102.647 301.259C94.2148 303.671 85.0515 304.039 75.471 302.024C33.7895 293.259 0 242.711 0 189.123C0 148.397 19.5168 117.635 47.182 109.063L73.4244 101.759C45.7592 110.331 26.2424 141.093 26.2424 181.82C26.2424 235.407 60.0318 285.955 101.713 294.721C111.294 296.736 120.457 296.368 128.889 293.956L102.647 301.259Z" fill="url(#paint14_linear_210_893)"/>
<path fill-rule="evenodd" clip-rule="evenodd" d="M47.182 109.062C55.9184 106.356 65.4674 105.861 75.471 107.965C87.4467 110.484 98.7704 116.451 108.829 124.949C109.886 125.842 111.039 126.108 112.042 125.864L138.285 118.56C137.281 118.805 136.128 118.538 135.071 117.646C125.013 109.148 113.689 103.18 101.713 100.662C91.7098 98.5582 82.1608 99.0523 73.4244 101.759L47.182 109.062Z" fill="url(#paint15_linear_210_893)"/>
<path fill-rule="evenodd" clip-rule="evenodd" d="M112.042 125.864C113.548 125.497 114.716 123.982 114.716 121.71V11.4264C114.716 9.39002 115.692 7.85196 117.075 7.42335L143.317 0.120117C141.934 0.548728 140.958 2.08679 140.958 4.12313V114.407C140.958 116.679 139.79 118.194 138.285 118.56L112.042 125.864Z" fill="url(#paint16_linear_210_893)"/>
<path fill-rule="evenodd" clip-rule="evenodd" d="M208.907 32.5634C180.331 40.3705 159.998 71.5582 159.998 113.127V181.048C159.998 183.727 161.688 186.255 163.772 186.693L193.96 193.042C194.419 193.138 194.858 193.125 195.265 193.018L221.507 185.715C221.101 185.822 220.661 185.835 220.203 185.738L190.014 179.39C187.931 178.952 186.241 176.424 186.241 173.745V105.824C186.241 64.255 206.573 33.0673 235.15 25.2601L208.907 32.5634Z" fill="url(#paint17_linear_210_893)"/>
<path fill-rule="evenodd" clip-rule="evenodd" d="M195.265 193.018C196.706 192.639 197.734 191.073 197.734 188.984V121.063C197.734 100.433 207.75 84.9163 221.871 80.8699L248.113 73.5667C233.992 77.6131 223.976 93.1295 223.976 113.76V181.681C223.976 183.77 222.948 185.335 221.507 185.715L195.265 193.018Z" fill="url(#paint18_linear_210_893)"/>
<path fill-rule="evenodd" clip-rule="evenodd" d="M221.871 80.8699C224.971 79.9816 228.268 79.6461 231.701 79.9305C232.074 79.9614 232.435 79.9287 232.776 79.8387L259.019 72.5355C258.678 72.6255 258.317 72.6581 257.943 72.6272C254.511 72.3429 251.213 72.6784 248.113 73.5666L221.871 80.8699Z" fill="url(#paint19_linear_210_893)"/>
<path fill-rule="evenodd" clip-rule="evenodd" d="M232.776 79.8388C234.33 79.4289 235.469 77.8297 235.469 75.6326V36.8207C235.469 34.1413 233.778 31.601 231.697 31.295C223.711 30.1211 216.051 30.6116 208.907 32.5634L235.15 25.2601C242.294 23.3083 249.953 22.8178 257.939 23.9918C260.02 24.2977 261.712 26.8381 261.712 29.5175V68.3293C261.712 70.5264 260.572 72.1257 259.019 72.5355L232.776 79.8388Z" fill="url(#paint20_linear_210_893)"/>
<path fill-rule="evenodd" clip-rule="evenodd" d="M195.375 326.888C194.938 327.023 194.46 327.048 193.96 326.943L163.772 320.594C161.688 320.156 159.998 317.628 159.998 314.949V263.523C159.998 261.487 160.974 259.949 162.358 259.52L188.6 252.217C187.217 252.646 186.241 254.184 186.241 256.22V307.646C186.241 310.325 187.931 312.853 190.014 313.291L220.203 319.639C220.703 319.744 221.18 319.72 221.617 319.584L195.375 326.888Z" fill="url(#paint21_linear_210_893)"/>
<path d="M78.4898 229.881C78.3479 229.855 78.206 229.827 78.0634 229.797C67.4616 227.568 58.8673 214.9 58.8673 201.503C58.8673 188.106 67.4616 179.053 78.0634 181.282C78.206 181.312 78.3479 181.344 78.4898 181.378V181.372L215.847 210.258V210.264C215.989 210.29 216.131 210.318 216.273 210.348C226.875 212.577 235.469 225.245 235.469 238.642C235.469 252.039 226.875 261.092 216.273 258.863C216.131 258.833 215.989 258.801 215.847 258.767V258.773L78.4898 229.887V229.881ZM159.998 263.523C159.998 260.844 161.688 259.027 163.772 259.465L193.96 265.814C196.044 266.252 197.734 268.78 197.734 271.459V322.885C197.734 325.564 196.044 327.381 193.96 326.943L163.772 320.594C161.688 320.156 159.998 317.628 159.998 314.949V263.523ZM114.716 11.4263C114.716 8.74694 116.406 6.93022 118.489 7.36843L148.678 13.717C150.762 14.1552 152.451 16.6827 152.451 19.3621V179.461C152.451 182.14 150.762 183.957 148.678 183.519L101.391 173.574C100.492 173.385 99.6262 172.782 98.9213 171.914C92.4821 163.985 84.3335 158.344 75.471 156.48C54.6303 152.097 37.7355 170.265 37.7355 197.059C37.7355 223.853 54.6303 249.127 75.471 253.509C84.7199 255.454 93.1915 252.958 99.7545 247.238C100.473 246.611 101.373 246.343 102.311 246.54L148.678 256.291C150.762 256.729 152.451 259.257 152.451 261.936V313.362C152.451 316.041 150.762 317.858 148.678 317.42L118.489 311.071C116.406 310.633 114.716 308.105 114.716 305.426V304.786C114.716 300.998 111.471 297.95 108.829 299.072C98.7704 303.338 87.4467 304.543 75.471 302.024C33.7895 293.259 0 242.711 0 189.123C0 135.536 33.7895 99.1995 75.471 107.965C87.4467 110.484 98.7704 116.451 108.829 124.949C111.471 127.18 114.716 125.497 114.716 121.71V11.4263ZM235.469 36.8207C235.469 34.1413 233.778 31.601 231.697 31.295C191.768 25.4254 159.998 61.166 159.998 113.127V181.048C159.998 183.727 161.688 186.255 163.772 186.693L193.96 193.042C196.044 193.48 197.734 191.663 197.734 188.984V121.063C197.734 95.9042 212.63 78.3506 231.701 79.9305C233.775 80.1022 235.469 78.3119 235.469 75.6326V36.8207Z" fill="url(#paint22_linear_210_893)"/>
<defs>
<linearGradient id="paint0_linear_210_893" x1="87.8001" y1="173.642" x2="87.8001" y2="181.531" gradientUnits="userSpaceOnUse">
<stop offset="0.135" stop-color="#DCDCDC"/>
</linearGradient>
<linearGradient id="paint1_linear_210_893" x1="91.611" y1="174.069" x2="91.611" y2="181.378" gradientUnits="userSpaceOnUse">
<stop offset="0.135" stop-color="#DCDCDC"/>
<stop offset="0.535" stop-color="#F8139C"/>
<stop offset="0.73" stop-color="#966AF4"/>
<stop offset="0.88" stop-color="#F8139C"/>
</linearGradient>
<linearGradient id="paint2_linear_210_893" x1="170.101" y1="174.069" x2="170.101" y2="258.614" gradientUnits="userSpaceOnUse">
<stop offset="0.135" stop-color="#DCDCDC"/>
<stop offset="0.535" stop-color="#F8139C"/>
<stop offset="0.73" stop-color="#966AF4"/>
<stop offset="0.88" stop-color="#F8139C"/>
</linearGradient>
<linearGradient id="paint3_linear_210_893" x1="232.779" y1="251.311" x2="232.779" y2="259.2" gradientUnits="userSpaceOnUse">
<stop offset="0.0001" stop-color="#662AE4"/>
</linearGradient>
<linearGradient id="paint4_linear_210_893" x1="228.968" y1="251.464" x2="228.968" y2="258.773" gradientUnits="userSpaceOnUse">
<stop offset="0.135" stop-color="#DCDCDC"/>
<stop offset="0.535" stop-color="#F8139C"/>
<stop offset="0.73" stop-color="#966AF4"/>
<stop offset="0.88" stop-color="#F8139C"/>
</linearGradient>
<linearGradient id="paint5_linear_210_893" x1="150.478" y1="174.228" x2="150.478" y2="258.773" gradientUnits="userSpaceOnUse">
<stop offset="0.135" stop-color="#DCDCDC"/>
<stop offset="0.535" stop-color="#5A3B9C"/>
</linearGradient>
<linearGradient id="paint6_linear_210_893" x1="193.167" y1="252.097" x2="193.167" y2="326.888" gradientUnits="userSpaceOnUse">
<stop offset="0.135" stop-color="#DCDCDC"/>
<stop offset="0.535" stop-color="#F8139C"/>
<stop offset="0.73" stop-color="#966AF4"/>
<stop offset="0.88" stop-color="#F8139C"/>
</linearGradient>
<linearGradient id="paint7_linear_210_893" x1="119.381" y1="148.524" x2="119.381" y2="183.584" gradientUnits="userSpaceOnUse">
<stop offset="0.135" stop-color="#DCDCDC"/>
<stop offset="0.535" stop-color="#F8139C"/>
<stop offset="0.73" stop-color="#966AF4"/>
<stop offset="0.88" stop-color="#F8139C"/>
</linearGradient>
<linearGradient id="paint8_linear_210_893" x1="147.884" y1="0" x2="147.884" y2="183.464" gradientUnits="userSpaceOnUse">
<stop offset="0.135" stop-color="#DCDCDC"/>
<stop offset="0.535" stop-color="#F8139C"/>
<stop offset="0.73" stop-color="#966AF4"/>
<stop offset="0.88" stop-color="#F8139C"/>
</linearGradient>
<linearGradient id="paint9_linear_210_893" x1="76.2989" y1="149.41" x2="76.2989" y2="254.162" gradientUnits="userSpaceOnUse">
<stop offset="0.135" stop-color="#DCDCDC"/>
<stop offset="0.535" stop-color="#F8139C"/>
<stop offset="0.73" stop-color="#966AF4"/>
<stop offset="0.88" stop-color="#F8139C"/>
</linearGradient>
<linearGradient id="paint10_linear_210_893" x1="107.906" y1="239.277" x2="107.906" y2="253.248" gradientUnits="userSpaceOnUse">
<stop offset="0.135" stop-color="#DCDCDC"/>
<stop offset="0.535" stop-color="#F8139C"/>
<stop offset="0.73" stop-color="#966AF4"/>
<stop offset="0.88" stop-color="#F8139C"/>
</linearGradient>
<linearGradient id="paint11_linear_210_893" x1="139.822" y1="239.173" x2="139.822" y2="317.365" gradientUnits="userSpaceOnUse">
<stop offset="0.135" stop-color="#DCDCDC"/>
<stop offset="0.535" stop-color="#F8139C"/>
<stop offset="0.73" stop-color="#966AF4"/>
<stop offset="0.88" stop-color="#F8139C"/>
</linearGradient>
<linearGradient id="paint12_linear_210_893" x1="142.822" y1="291.533" x2="142.822" y2="317.485" gradientUnits="userSpaceOnUse">
<stop offset="0.135" stop-color="#DCDCDC"/>
<stop offset="0.535" stop-color="#F8139C"/>
<stop offset="0.73" stop-color="#966AF4"/>
<stop offset="0.88" stop-color="#F8139C"/>
</linearGradient>
<linearGradient id="paint13_linear_210_893" x1="119.1" y1="291.611" x2="119.1" y2="301.259" gradientUnits="userSpaceOnUse">
<stop offset="0.135" stop-color="#DCDCDC"/>
<stop offset="0.535" stop-color="#F8139C"/>
<stop offset="0.73" stop-color="#966AF4"/>
<stop offset="0.88" stop-color="#F8139C"/>
</linearGradient>
<linearGradient id="paint14_linear_210_893" x1="64.4447" y1="101.759" x2="64.4447" y2="303.329" gradientUnits="userSpaceOnUse">
<stop offset="0.135" stop-color="#DCDCDC"/>
<stop offset="0.535" stop-color="#F8139C"/>
<stop offset="0.73" stop-color="#966AF4"/>
<stop offset="0.88" stop-color="#F8139C"/>
</linearGradient>
<linearGradient id="paint15_linear_210_893" x1="92.7334" y1="99.3574" x2="92.7334" y2="125.95" gradientUnits="userSpaceOnUse">
<stop offset="0.135" stop-color="#DCDCDC"/>
<stop offset="0.535" stop-color="#F8139C"/>
<stop offset="0.73" stop-color="#966AF4"/>
<stop offset="0.88" stop-color="#F8139C"/>
</linearGradient>
<linearGradient id="paint16_linear_210_893" x1="127.68" y1="0.120117" x2="127.68" y2="125.864" gradientUnits="userSpaceOnUse">
<stop offset="0.135" stop-color="#DCDCDC"/>
<stop offset="0.535" stop-color="#F8139C"/>
<stop offset="0.73" stop-color="#966AF4"/>
<stop offset="0.88" stop-color="#F8139C"/>
</linearGradient>
<linearGradient id="paint17_linear_210_893" x1="197.574" y1="25.2601" x2="197.574" y2="193.107" gradientUnits="userSpaceOnUse">
<stop offset="0.135" stop-color="#DCDCDC"/>
<stop offset="0.535" stop-color="#F8139C"/>
<stop offset="0.73" stop-color="#966AF4"/>
<stop offset="0.88" stop-color="#F8139C"/>
</linearGradient>
<linearGradient id="paint18_linear_210_893" x1="221.689" y1="73.5667" x2="221.689" y2="193.018" gradientUnits="userSpaceOnUse">
<stop offset="0.135" stop-color="#DCDCDC"/>
<stop offset="0.535" stop-color="#F8139C"/>
<stop offset="0.73" stop-color="#966AF4"/>
<stop offset="0.88" stop-color="#F8139C"/>
</linearGradient>
<linearGradient id="paint19_linear_210_893" x1="240.445" y1="72.5286" x2="240.445" y2="80.8699" gradientUnits="userSpaceOnUse">
<stop offset="0.135" stop-color="#DCDCDC"/>
<stop offset="0.535" stop-color="#F8139C"/>
<stop offset="0.73" stop-color="#966AF4"/>
<stop offset="0.88" stop-color="#F8139C"/>
</linearGradient>
<linearGradient id="paint20_linear_210_893" x1="235.31" y1="23.3616" x2="235.31" y2="79.8388" gradientUnits="userSpaceOnUse">
<stop offset="0.135" stop-color="#DCDCDC"/>
<stop offset="0.535" stop-color="#F8139C"/>
<stop offset="0.73" stop-color="#966AF4"/>
<stop offset="0.88" stop-color="#F8139C"/>
</linearGradient>
<linearGradient id="paint21_linear_210_893" x1="190.808" y1="252.217" x2="190.808" y2="327.008" gradientUnits="userSpaceOnUse">
<stop offset="0.135" stop-color="#DCDCDC"/>
<stop offset="0.535" stop-color="#F8139C"/>
<stop offset="0.73" stop-color="#966AF4"/>
<stop offset="0.88" stop-color="#F8139C"/>
</linearGradient>
<linearGradient id="paint22_linear_210_893" x1="211.43" y1="7.30324" x2="24.0397" y2="327.008" gradientUnits="userSpaceOnUse">
<stop offset="0.16442" stop-color="white"/>
<stop offset="0.634036" stop-color="#F8139C"/>
<stop offset="0.927433" stop-color="#E66E00"/>
</linearGradient>
</defs>
</svg>
