<svg width="252" height="331" viewBox="0 0 252 331" fill="none" xmlns="http://www.w3.org/2000/svg">
<path fill-rule="evenodd" clip-rule="evenodd" d="M218.067 29.5833C192.767 34.7636 174.573 65.1825 174.573 107.599V175.214C174.573 177.881 176.012 180.487 177.787 181.035L203.499 188.965C203.854 189.075 204.195 189.094 204.514 189.032L166.212 197.351C165.893 197.412 165.551 197.393 165.196 197.284L139.485 189.353C137.71 188.806 136.271 186.199 136.271 183.532V115.917C136.271 73.5008 154.465 43.0818 179.765 37.9016L218.067 29.5833Z" fill="url(#paint0_linear_215_3056)"/>
<path fill-rule="evenodd" clip-rule="evenodd" d="M176.676 253.433C177.022 253.348 177.397 253.359 177.787 253.479L203.499 261.41C205.273 261.957 206.713 264.564 206.713 267.231V318.425C206.713 320.505 205.837 322.008 204.609 322.309L166.307 330.628C167.535 330.327 168.41 328.823 168.41 326.743V275.549C168.41 272.882 166.971 270.275 165.196 269.728L139.485 261.797C139.094 261.677 138.72 261.666 138.374 261.751L176.676 253.433Z" fill="url(#paint1_linear_215_3056)"/>
<path fill-rule="evenodd" clip-rule="evenodd" d="M204.61 322.309C204.263 322.394 203.889 322.384 203.499 322.263L177.787 314.332C176.012 313.785 174.573 311.178 174.573 308.511V257.317C174.573 255.237 175.449 253.734 176.676 253.433L138.374 261.751C137.147 262.052 136.271 263.556 136.271 265.636V316.83C136.271 319.497 137.71 322.103 139.485 322.651L165.196 330.581C165.587 330.702 165.961 330.713 166.307 330.628L204.61 322.309Z" fill="url(#paint2_linear_215_3056)"/>
<path fill-rule="evenodd" clip-rule="evenodd" d="M138.109 0.0553223C138.455 -0.0295538 138.829 -0.0187871 139.22 0.101644L164.931 8.03232C166.706 8.57973 168.145 11.186 168.145 13.8533V173.231C168.145 175.311 167.27 176.815 166.042 177.116L127.74 185.434C128.967 185.133 129.843 183.63 129.843 181.549V22.1716C129.843 19.5042 128.404 16.898 126.629 16.3506L100.918 8.41993C100.527 8.2995 100.153 8.28873 99.8068 8.37361L138.109 0.0553223Z" fill="url(#paint3_linear_215_3056)"/>
<path fill-rule="evenodd" clip-rule="evenodd" d="M166.042 177.116C165.696 177.201 165.322 177.19 164.931 177.069L124.658 164.647C123.891 164.411 123.154 163.764 122.554 162.862C117.069 154.625 110.129 148.575 102.581 146.246C99.031 145.151 95.6154 144.963 92.4225 145.575L54.1202 153.893C57.3132 153.281 60.7287 153.47 64.2788 154.565C71.827 156.893 78.7672 162.944 84.2515 171.18C84.8518 172.082 85.5891 172.729 86.3553 172.965L126.629 185.388C127.02 185.508 127.394 185.519 127.74 185.434L166.042 177.116Z" fill="url(#paint4_linear_215_3056)"/>
<path fill-rule="evenodd" clip-rule="evenodd" d="M92.4225 145.575C79.6508 148.025 70.4416 163.291 70.4416 184.629C70.4416 211.302 84.8309 237.364 102.581 242.839C106.205 243.957 109.688 244.13 112.938 243.471L74.6355 251.789C71.3859 252.448 67.9024 252.275 64.2788 251.157C46.5287 245.682 32.1394 219.621 32.1394 192.948C32.1394 171.609 41.3486 156.343 54.1203 153.893L92.4225 145.575Z" fill="url(#paint5_linear_215_3056)"/>
<path fill-rule="evenodd" clip-rule="evenodd" d="M112.938 243.471C116.752 242.697 120.245 240.777 123.263 237.891C123.582 237.587 123.941 237.381 124.326 237.289L86.0239 245.607C85.6393 245.7 85.2793 245.905 84.9611 246.209C81.9427 249.095 78.4503 251.016 74.6355 251.789L112.938 243.471Z" fill="url(#paint6_linear_215_3056)"/>
<path fill-rule="evenodd" clip-rule="evenodd" d="M124.326 237.289C124.681 237.204 125.057 237.215 125.441 237.333L164.931 249.514C166.706 250.061 168.145 252.668 168.145 255.335V306.529C168.145 308.609 167.27 310.112 166.042 310.413L127.74 318.732C128.968 318.431 129.843 316.927 129.843 314.847V263.653C129.843 260.986 128.404 258.379 126.629 257.832L87.1389 245.651C86.7551 245.533 86.379 245.522 86.0239 245.607L124.326 237.289Z" fill="url(#paint7_linear_215_3056)"/>
<path fill-rule="evenodd" clip-rule="evenodd" d="M166.042 310.413C165.696 310.498 165.322 310.488 164.931 310.367L139.22 302.436C137.445 301.889 136.006 299.282 136.006 296.615V295.978C136.006 292.434 133.564 289.387 131.402 289.845L93.0997 298.163C95.2614 297.706 97.7037 300.752 97.7037 304.296V304.934C97.7037 307.601 99.1429 310.207 100.918 310.755L126.629 318.685C127.02 318.806 127.394 318.817 127.74 318.732L166.042 310.413Z" fill="url(#paint8_linear_215_3056)"/>
<path fill-rule="evenodd" clip-rule="evenodd" d="M131.402 289.845C131.264 289.874 131.127 289.917 130.992 289.976C128.765 290.94 126.464 291.694 124.101 292.227L85.7983 300.545C88.1623 300.013 90.4625 299.259 92.69 298.294C92.8249 298.235 92.9618 298.192 93.0998 298.163L131.402 289.845Z" fill="url(#paint9_linear_215_3056)"/>
<path fill-rule="evenodd" clip-rule="evenodd" d="M124.101 292.227C117.372 293.743 110.129 293.463 102.581 291.135C67.0808 280.185 38.3022 228.062 38.3022 174.716C38.3022 133.106 55.8111 103.041 80.3617 97.023L42.0595 105.341C17.5089 111.359 0 141.424 0 183.034C0 236.38 28.7786 288.504 64.2788 299.454C71.8266 301.782 79.0703 302.061 85.7983 300.545L124.101 292.227Z" fill="url(#paint10_linear_215_3056)"/>
<path fill-rule="evenodd" clip-rule="evenodd" d="M133.6 117.744C134.943 117.53 136.006 116.064 136.006 113.727V3.93994C136.006 1.85943 136.882 0.356253 138.109 0.0553284L99.8068 8.37361C98.5794 8.67454 97.7037 10.1777 97.7037 12.2582V122.045C97.7037 124.383 96.6413 125.848 95.2976 126.062L133.6 117.744Z" fill="url(#paint11_linear_215_3056)"/>
<path fill-rule="evenodd" clip-rule="evenodd" d="M228.156 78.5691C230.536 78.0416 233.044 77.9627 235.642 78.3772C235.925 78.4222 236.199 78.4168 236.461 78.3649L198.159 86.6831C197.897 86.735 197.623 86.7405 197.34 86.6954C194.741 86.281 192.233 86.3599 189.854 86.8874L228.156 78.5691Z" fill="url(#paint12_linear_215_3056)"/>
<path fill-rule="evenodd" clip-rule="evenodd" d="M236.461 78.3649C237.834 78.0924 238.852 76.5402 238.852 74.2997V35.6626C238.852 32.9953 237.412 30.3761 235.639 29.9605C229.517 28.5252 223.621 28.4462 218.067 29.5833L179.765 37.9016C185.319 36.7645 191.215 36.8435 197.336 38.2788C199.109 38.6944 200.55 41.3136 200.55 43.9809V82.618C200.55 84.8585 199.532 86.4107 198.159 86.6832L236.461 78.3649Z" fill="black"/>
<path d="M174.573 257.317C174.573 254.65 176.012 252.932 177.787 253.479L203.499 261.41C205.273 261.957 206.713 264.564 206.713 267.231V318.425C206.713 321.092 205.273 322.811 203.499 322.263L177.787 314.332C176.012 313.785 174.573 311.178 174.573 308.511V257.317ZM136.006 3.93994C136.006 1.27261 137.445 -0.445771 139.22 0.101644L164.931 8.03232C166.706 8.57973 168.145 11.186 168.145 13.8533V173.231C168.145 175.898 166.706 177.617 164.931 177.069L124.658 164.647C123.891 164.411 123.154 163.764 122.554 162.862C117.069 154.625 110.129 148.575 102.581 146.246C84.8309 140.771 70.4416 157.956 70.4416 184.629C70.4416 211.302 84.8309 237.364 102.581 242.839C110.458 245.269 117.674 243.235 123.263 237.891C123.875 237.306 124.641 237.086 125.441 237.333L164.931 249.514C166.706 250.061 168.145 252.668 168.145 255.335V306.529C168.145 309.196 166.706 310.915 164.931 310.367L139.22 302.436C137.445 301.889 136.006 299.282 136.006 296.615V295.978C136.006 292.208 133.242 289 130.992 289.976C122.425 293.686 112.781 294.281 102.581 291.135C67.0808 280.185 38.3022 228.062 38.3022 174.716C38.3022 121.37 67.0808 87.0001 102.581 97.9501C112.781 101.096 122.425 107.641 130.992 116.637C133.242 118.999 136.006 117.497 136.006 113.727V3.93994ZM238.852 35.6626C238.852 32.9953 237.411 30.3761 235.639 29.9605C201.631 21.987 174.573 55.8716 174.573 107.599V175.214C174.573 177.881 176.012 180.487 177.787 181.035L203.499 188.965C205.273 189.513 206.713 187.794 206.713 185.127V117.512C206.713 92.4667 219.399 75.7869 235.643 78.3772C237.409 78.6588 238.852 76.967 238.852 74.2997V35.6626Z" fill="#FC0000"/>
<path fill-rule="evenodd" clip-rule="evenodd" d="M111.302 174.238C113.063 173.823 114.967 173.887 116.954 174.5C117.075 174.537 117.196 174.576 117.317 174.617L79.0147 182.936C78.894 182.895 78.7729 182.855 78.6514 182.818C76.665 182.205 74.7612 182.141 73 182.556L111.302 174.238Z" fill="#090909"/>
<path fill-rule="evenodd" clip-rule="evenodd" d="M117.317 174.617V174.612L79.0148 182.93V182.936L117.317 174.617Z" fill="#090909"/>
<path fill-rule="evenodd" clip-rule="evenodd" d="M117.317 174.612L234.304 210.696V210.702C234.425 210.735 234.546 210.771 234.668 210.808C243.697 213.593 251.017 226.663 251.017 239.999C251.017 250.402 246.563 257.894 240.319 259.366L202.017 267.684C208.261 266.213 212.715 258.72 212.715 248.318C212.715 234.981 205.395 221.912 196.365 219.126C196.244 219.089 196.123 219.054 196.002 219.02V219.014L79.0148 182.93L117.317 174.612Z" fill="#090909"/>
<path fill-rule="evenodd" clip-rule="evenodd" d="M240.319 259.366C238.558 259.781 236.654 259.717 234.667 259.104C234.546 259.067 234.425 259.028 234.304 258.987L196.002 267.305C196.123 267.346 196.244 267.385 196.365 267.423C198.352 268.035 200.255 268.099 202.017 267.684L240.319 259.366Z" fill="url(#paint13_linear_215_3056)"/>
<path fill-rule="evenodd" clip-rule="evenodd" d="M234.304 258.987V258.992L196.002 267.311V267.305L234.304 258.987Z" fill="#090909"/>
<path fill-rule="evenodd" clip-rule="evenodd" d="M234.304 258.992L117.317 222.908V222.902C117.196 222.869 117.075 222.833 116.954 222.796C107.924 220.011 100.604 206.941 100.604 193.605C100.604 183.202 105.058 175.71 111.302 174.238L73 182.556C66.7556 184.028 62.3022 191.521 62.3022 201.923C62.3022 215.26 69.622 228.329 78.6514 231.114C78.7728 231.152 78.8939 231.187 79.0147 231.22V231.226L196.002 267.311L234.304 258.992Z" fill="url(#paint14_linear_215_3056)"/>
<path d="M117.317 222.902C117.196 222.869 117.075 222.833 116.954 222.796C107.924 220.011 100.604 206.941 100.604 193.605C100.604 180.268 107.924 171.714 116.954 174.5C117.075 174.537 117.196 174.576 117.317 174.617V174.612L234.304 210.696V210.702C234.425 210.735 234.546 210.771 234.667 210.808C243.697 213.593 251.017 226.663 251.017 239.999C251.017 253.336 243.697 261.89 234.667 259.104C234.546 259.067 234.425 259.028 234.304 258.987V258.992L117.317 222.908V222.902Z" fill="url(#paint15_linear_215_3056)"/>
<path fill-rule="evenodd" clip-rule="evenodd" d="M176.676 253.433C177.023 253.348 177.397 253.359 177.787 253.479L203.499 261.41C205.273 261.957 206.713 264.564 206.713 267.231V318.425C206.713 320.505 205.837 322.008 204.61 322.309L166.307 330.628C167.535 330.327 168.41 328.823 168.41 326.743V275.549C168.41 272.882 166.971 270.276 165.197 269.728L139.485 261.797C139.095 261.677 138.72 261.666 138.374 261.751L176.676 253.433Z" fill="url(#paint16_linear_215_3056)"/>
<path fill-rule="evenodd" clip-rule="evenodd" d="M112.938 243.471C116.752 242.697 120.245 240.777 123.263 237.891C123.582 237.587 123.941 237.381 124.326 237.289L86.0239 245.607C85.6393 245.7 85.2793 245.905 84.9611 246.209C81.9427 249.095 78.4503 251.016 74.6355 251.789L112.938 243.471Z" fill="url(#paint17_linear_215_3056)"/>
<path d="M174.573 257.317C174.573 254.65 176.012 252.932 177.787 253.479L203.499 261.41C205.273 261.957 206.713 264.564 206.713 267.231V318.425C206.713 321.092 205.273 322.811 203.499 322.263L177.787 314.332C176.012 313.785 174.573 311.178 174.573 308.511V257.317ZM136.006 3.93994C136.006 1.27261 137.445 -0.445771 139.22 0.101644L164.931 8.03232C166.706 8.57973 168.145 11.186 168.145 13.8533V173.231C168.145 175.898 166.706 177.617 164.931 177.069L124.658 164.647C123.891 164.411 123.154 163.764 122.554 162.862C117.069 154.625 110.129 148.575 102.581 146.246C84.8309 140.771 70.4416 157.956 70.4416 184.629C70.4416 211.302 84.8309 237.364 102.581 242.839C110.458 245.269 117.674 243.235 123.263 237.891C123.875 237.306 124.641 237.086 125.441 237.333L164.931 249.514C166.706 250.061 168.145 252.668 168.145 255.335V306.529C168.145 309.196 166.706 310.915 164.931 310.367L139.22 302.436C137.445 301.889 136.006 299.282 136.006 296.615V295.978C136.006 292.208 133.242 289 130.992 289.976C122.425 293.686 112.781 294.281 102.581 291.135C67.0808 280.185 38.3022 228.062 38.3022 174.716C38.3022 121.37 67.0808 87.0001 102.581 97.9501C112.781 101.096 122.425 107.641 130.992 116.637C133.242 118.999 136.006 117.497 136.006 113.727V3.93994ZM238.852 35.6626C238.852 32.9953 237.411 30.3761 235.639 29.9605C201.631 21.987 174.573 55.8716 174.573 107.599V175.214C174.573 177.881 176.012 180.487 177.787 181.035L203.499 188.965C205.273 189.513 206.713 187.794 206.713 185.127V117.512C206.713 92.4667 219.399 75.7869 235.643 78.3772C237.409 78.6588 238.852 76.967 238.852 74.2997V35.6626Z" fill="url(#paint18_linear_215_3056)"/>
<defs>
<linearGradient id="paint0_linear_215_3056" x1="177.169" y1="29.5833" x2="177.169" y2="197.385" gradientUnits="userSpaceOnUse">
<stop/>
<stop offset="0.5" stop-color="#959595"/>
<stop offset="0.75" stop-color="#effbf1"/>
<stop offset="1" stop-color="#FFFFFF"/>
</linearGradient>
<linearGradient id="paint1_linear_215_3056" x1="172.543" y1="253.377" x2="172.543" y2="330.628" gradientUnits="userSpaceOnUse">
<stop/>
<stop offset="0.5" stop-color="#959595"/>
<stop offset="0.75" stop-color="#effbf1"/>
<stop offset="1" stop-color="#FFFFFF"/>
</linearGradient>
<linearGradient id="paint2_linear_215_3056" x1="170.44" y1="253.433" x2="170.44" y2="330.683" gradientUnits="userSpaceOnUse">
<stop/>
<stop offset="0.5" stop-color="#959595"/>
<stop offset="0.75" stop-color="#effbf1"/>
<stop offset="1" stop-color="#FFFFFF"/>
</linearGradient>
<linearGradient id="paint3_linear_215_3056" x1="133.976" y1="0" x2="133.976" y2="185.434" gradientUnits="userSpaceOnUse">
<stop/>
<stop offset="0.5" stop-color="#959595"/>
<stop offset="0.75" stop-color="#effbf1"/>
<stop offset="1" stop-color="#FFFFFF"/>
</linearGradient>
<linearGradient id="paint4_linear_215_3056" x1="110.081" y1="145.23" x2="110.081" y2="185.489" gradientUnits="userSpaceOnUse">
<stop/>
<stop offset="0.5" stop-color="#959595"/>
<stop offset="0.75" stop-color="#effbf1"/>
<stop offset="1" stop-color="#FFFFFF"/>
</linearGradient>
<linearGradient id="paint5_linear_215_3056" x1="72.5386" y1="145.575" x2="72.5386" y2="252.174" gradientUnits="userSpaceOnUse">
<stop/>
<stop offset="0.5" stop-color="#959595"/>
<stop offset="0.75" stop-color="#effbf1"/>
<stop offset="1" stop-color="#FFFFFF"/>
</linearGradient>
<linearGradient id="paint6_linear_215_3056" x1="99.4808" y1="237.289" x2="99.4808" y2="251.789" gradientUnits="userSpaceOnUse">
<stop/>
<stop offset="0.5" stop-color="#959595"/>
<stop offset="0.75" stop-color="#effbf1"/>
<stop offset="1" stop-color="#FFFFFF"/>
</linearGradient>
<linearGradient id="paint7_linear_215_3056" x1="127.085" y1="237.233" x2="127.085" y2="318.732" gradientUnits="userSpaceOnUse">
<stop/>
<stop offset="0.5" stop-color="#959595"/>
<stop offset="0.75" stop-color="#effbf1"/>
<stop offset="1" stop-color="#FFFFFF"/>
</linearGradient>
<linearGradient id="paint8_linear_215_3056" x1="129.571" y1="289.799" x2="129.571" y2="318.787" gradientUnits="userSpaceOnUse">
<stop/>
<stop offset="0.5" stop-color="#959595"/>
<stop offset="0.75" stop-color="#effbf1"/>
<stop offset="1" stop-color="#FFFFFF"/>
</linearGradient>
<linearGradient id="paint9_linear_215_3056" x1="108.6" y1="289.845" x2="108.6" y2="300.545" gradientUnits="userSpaceOnUse">
<stop/>
<stop offset="0.5" stop-color="#959595"/>
<stop offset="0.75" stop-color="#effbf1"/>
<stop offset="1" stop-color="#FFFFFF"/>
</linearGradient>
<linearGradient id="paint10_linear_215_3056" x1="62.0503" y1="97.023" x2="62.0503" y2="301.487" gradientUnits="userSpaceOnUse">
<stop/>
<stop offset="0.5" stop-color="#959595"/>
<stop offset="0.75" stop-color="#effbf1"/>
<stop offset="1" stop-color="#FFFFFF"/>
</linearGradient>
<linearGradient id="paint11_linear_215_3056" x1="116.703" y1="0.0553284" x2="116.703" y2="126.062" gradientUnits="userSpaceOnUse">
<stop/>
<stop offset="0.5" stop-color="#959595"/>
<stop offset="0.75" stop-color="#effbf1"/>
<stop offset="1" stop-color="#FFFFFF"/>
</linearGradient>
<linearGradient id="paint12_linear_215_3056" x1="213.157" y1="78.1126" x2="213.157" y2="86.8874" gradientUnits="userSpaceOnUse">
<stop/>
<stop offset="0.5" stop-color="#959595"/>
<stop offset="0.75" stop-color="#effbf1"/>
<stop offset="1" stop-color="#FFFFFF"/>
</linearGradient>
<linearGradient id="paint13_linear_215_3056" x1="217.659" y1="258.987" x2="218.662" y2="267.949" gradientUnits="userSpaceOnUse">
<stop stop-color="#FF7A00"/>
<stop offset="0.5" stop-color="#CC6200"/>
</linearGradient>
<linearGradient id="paint14_linear_215_3056" x1="62.3022" y1="230.453" x2="234.304" y2="211.096" gradientUnits="userSpaceOnUse">
<stop stop-color="#E61288"/>
<stop offset="1" stop-color="#E66E00"/>
</linearGradient>
<linearGradient id="paint15_linear_215_3056" x1="100.604" y1="216.802" x2="251.017" y2="216.802" gradientUnits="userSpaceOnUse">
<stop stop-color="#F8139C"/>
<stop offset="1" stop-color="#FF7A00"/>
</linearGradient>
<linearGradient id="paint16_linear_215_3056" x1="172.543" y1="253.378" x2="172.543" y2="330.628" gradientUnits="userSpaceOnUse">
<stop/>
<stop offset="0.5" stop-color="#959595"/>
<stop offset="0.75" stop-color="#effbf1"/>
<stop offset="1" stop-color="#FFFFFF"/>
</linearGradient>
<linearGradient id="paint17_linear_215_3056" x1="99.4808" y1="237.289" x2="99.4808" y2="251.789" gradientUnits="userSpaceOnUse">
<stop/>
<stop offset="0.5" stop-color="#959595"/>
<stop offset="0.75" stop-color="#effbf1"/>
<stop offset="1" stop-color="#FFFFFF"/>
</linearGradient>
<linearGradient id="paint18_linear_215_3056" x1="138.577" y1="0" x2="138.577" y2="322.365" gradientUnits="userSpaceOnUse">
<stop stop-color="white"/>
<stop offset="0.75" stop-color="#FFFFFF"/>
<stop offset="1"/>
</linearGradient>
</defs>
</svg>
