<svg width="580" height="915" viewBox="0 0 580 915" fill="none" xmlns="http://www.w3.org/2000/svg">
<path d="M9.95264 290.817L25.5935 355.91L49.5147 351.08L58.2551 326.239L26.7435 276.326L9.95264 290.817Z" stroke="black"/>
<path d="M26.9111 276.09L112.614 278.631L100.619 327.546L58.4131 326.367L26.9111 276.09Z" stroke="black"/>
<path d="M9.95267 290.701L33.0001 152.99L56.5876 102.552L207.76 9.21347L287.455 1L370.611 14.3422L455.303 75.1652L513.854 117.615L550.449 169.01L568.076 341.649L518.571 468.517L578.887 648.6L516.554 673.671L463.536 745.32L428.804 825.134L340.802 883.419L302.787 913.717L227.318 912.085L217.071 879.841L184.704 716.741L159.23 723.124L144.492 725.493L81.8743 722.321L63.1704 708.659L55.0382 704.593L55.5261 675.155L35.254 602.655L30.4237 577.181L20.7632 485.177L1.04077 464.858L21.8591 415.252L25.2746 354.992L9.95267 290.701Z" stroke="black"/>
<path d="M112.695 278.469L100.577 327.618L143.474 351.309L310.118 362.35L247.095 297.257L112.695 278.469Z" stroke="black"/>
<path d="M246.957 297.254L298.503 157.065L456.348 76.043L466.281 358.896L375.672 556.02L266.876 467.006L310.957 362.718L246.957 297.254Z" stroke="black"/>
<path d="M466.444 358.977L567.847 341.419L550.452 168.853L513.679 117.589L456.406 75.7412L466.444 358.977Z" stroke="black"/>
<path d="M375.709 556.141L401.778 567.635L463.536 744.974L428.832 825.193L340.825 883.456L302.686 913.875L227.358 912.003L216.963 879.618L184.685 716.751L291.358 682.636L372.517 623.271L401.671 567.648L375.709 556.141Z" stroke="black"/>
<path d="M375.901 556.135L309.249 635.632L184.502 716.466L159.617 723.053L144.451 725.737L82.1187 722.491L63.3152 708.805L54.8623 704.665L150.375 707.483L266.933 466.66L375.901 556.135Z" stroke="black"/>
<path d="M149.778 708.009L118.388 723.948L81.6302 722.322L63.9022 709.066L54.8755 704.594L149.778 708.009Z" stroke="black"/>
<path d="M96.1868 706.219L98.1621 633.533L149.34 707.827L96.1868 706.219Z" stroke="black"/>
<path d="M35.033 601.152L42.3519 575.129L92.6086 576.105L159.292 593.995L97.7725 632.542L58.4536 631.891L35.033 601.152Z" stroke="black"/>
<path d="M35.1963 600.873L46.6969 602.885L87.6965 602.483L159.69 594.087L92.7306 576.024L42.3267 575.111L35.1963 600.873Z" stroke="black"/>
<path d="M159.495 593.956L79.4345 545.773L57.1049 554.411L26.8296 542.191L39.9403 582.386L42.2096 574.947L92.5679 575.944L159.495 593.956Z" stroke="black"/>
<path d="M26.9009 542.195L38.6112 504.136L20.7205 484.863L26.9009 542.195Z" stroke="black"/>
<path d="M48.1258 514.382L1.21216 465.107L43.5343 466.43L127.259 485.866L81.4863 517.378L48.1258 514.382Z" stroke="black"/>
<path d="M127.661 485.924L79.1499 545.894L56.9612 554.439L26.6162 541.91L38.4891 504.095L48.3645 514.56L81.1987 517.32L127.661 485.924Z" stroke="black"/>
<path d="M127.719 485.81L100.537 327.486L43.103 466.331L127.719 485.81Z" stroke="black"/>
<path d="M150.144 707.766L184.339 716.609L144.107 725.77L117.943 724.332L150.144 707.766Z" stroke="black"/>
<path d="M401.663 567.406L518.611 468.375L466.22 358.611L375.546 555.918L401.663 567.406Z" stroke="black"/>
<path d="M1 464.816L49.8596 351.079L58.2097 326.285L100.497 327.586L43.2465 466.341L1 464.816Z" stroke="black"/>
<path d="M127.577 486.082L143.353 351.373L100.659 327.668L127.577 486.082Z" stroke="black"/>
<path d="M127.546 485.752L266.718 467.135L203.163 598.917L158.885 593.627L127.546 485.752Z" stroke="black"/>
<path d="M310.794 362.475L375.671 555.848L266.818 467.179L310.794 362.475Z" stroke="black"/>
<path d="M310.55 362.312L466.296 358.9L298.637 157.016L310.55 362.312Z" stroke="black"/>
<path d="M26.8583 276.671L56.5874 102.667L32.8372 152.827L9.88428 290.871L26.8583 276.671Z" stroke="black"/>
<path d="M112.423 278.454L179.135 107.206L298.515 156.975L247.152 297.343L112.423 278.454Z" stroke="black"/>
<path d="M178.896 107.324L370.891 14.499L456.441 76.0594L298.433 156.954L178.896 107.324Z" stroke="black"/>
<path d="M56.3394 102.489L178.972 107.206L112.533 278.632L26.8604 276.233L56.3394 102.489Z" stroke="black"/>
<path d="M309.574 635.308L291.521 682.881L372.761 623.354L309.574 635.308Z" stroke="black"/>
<path d="M428.407 825.434L372.218 623.541L291.425 682.743L340.706 883.282L428.407 825.434Z" stroke="black"/>
</svg>
