<svg width="800" height="800" viewBox="0 0 800 800" fill="none" xmlns="http://www.w3.org/2000/svg">
<path d="M492.4 443.875L469.5 455.15L471.375 456.7L477.55 461.6L540.325 512.15C560.408 528.216 580.733 543.975 601.3 559.425C601.125 560.35 601.025 561.4 601.025 562.475C601.025 562.8 601.025 563.125 601.05 563.45V563.4L609.175 562.15L612.4 566.9L684.775 612.875C683.65 617.275 683.025 622.325 683.025 627.525C683.025 638.875 686.075 649.525 691.4 658.675L691.25 658.375C711.125 688.475 739.875 711.35 773.725 723.425L774.875 723.775C750.8 662.3 768.35 612.275 720.825 594.65C717.5 593.2 713.65 592.375 709.575 592.375C706.575 592.375 703.675 592.825 700.975 593.675L701.175 593.625L637.225 534.425L631.8 532.8L631.025 524.625C629.575 525.2 628.325 525.825 627.15 526.525L627.275 526.45C617.725 518.325 605.825 509.675 593.225 501C550.625 474.925 522.725 460.375 492.375 443.825L492.4 443.875ZM509.6 440.75C508.1 442.4 506.5 443.9 504.8 445.275L504.725 445.35L511.275 448.95C510.875 445.85 510.275 443.075 509.5 440.375L509.6 440.75ZM251.55 285.65C237.2 285.825 225.625 297.5 225.625 311.9C225.625 326.4 237.375 338.15 251.875 338.15C266.375 338.15 278.125 326.4 278.125 311.9C278.125 306.95 276.75 302.325 274.375 298.4L274.45 298.525C269.8 290.775 261.425 285.675 251.875 285.675C251.775 285.675 251.65 285.675 251.55 285.675V285.65ZM77.875 281.825H77.925C78.1417 281.825 78.3583 281.825 78.575 281.825C78.6 281.825 78.625 281.825 78.65 281.825C86.925 281.825 94.425 285.125 99.925 290.5C105.375 295.825 108.725 303.225 108.725 311.45C108.725 319.675 105.35 327.075 99.9 332.4C94.425 337.75 86.9 341.05 78.625 341.05C70.35 341.05 62.8 337.725 57.325 332.35C51.9 327.025 48.525 319.6 48.525 311.4C48.525 303.325 51.775 296.025 57.05 290.725C62.4 285.35 69.725 281.975 77.85 281.775L77.875 281.825ZM419.725 261.85C396.875 261.85 378.3 280.375 378.3 303.25C378.3 326.125 396.825 344.65 419.7 344.65C442.55 344.65 461.1 326.125 461.1 303.25C461.1 295.65 459.05 288.5 455.475 282.375L455.575 282.575C448.3 270.1 434.975 261.85 419.75 261.85H419.725ZM239.275 246.8C239.85 246.775 240.525 246.775 241.2 246.775C272.275 246.775 297.6 271.4 298.7 302.225V302.325C297.55 333.2 272.225 357.8 241.175 357.8C240.5 357.8 239.825 357.8 239.15 357.775H239.25C238.675 357.8 238.025 357.8 237.35 357.8C206.3 357.8 181 333.2 179.9 302.425V302.325C181 271.4 206.35 246.75 237.45 246.75C238.1 246.75 238.725 246.75 239.35 246.775H239.25L239.275 246.8ZM645.175 76.2248C641.875 75.7248 638.05 79.5748 635.05 88.6248C630.15 103.3 601.525 188.7 463.1 223.775C481.6 239.275 493.35 262.275 493.6 288.05V288.1C491.8 336.825 451.875 375.625 402.9 375.625C401.85 375.625 400.775 375.6 399.725 375.575H399.875C399 375.6 397.975 375.625 396.925 375.625C347.925 375.625 308 336.825 306.225 288.275V288.1C306.3 269 312.825 251.425 323.7 237.425L323.55 237.625C262.45 229.25 211.45 192.375 183.775 141.05L183.275 140.05L180.275 270.1C180.375 271.975 180.45 274.175 180.45 276.4C180.45 292.55 177.3 307.95 171.55 322.025L171.85 321.225L170.275 318.975C159.125 303.375 145.225 290.525 129.2 280.85L128.575 280.5C115.275 272.225 99.125 267.3 81.825 267.3C81.625 267.3 81.425 267.3 81.225 267.3C69.325 267.55 58.425 271.4 49.425 277.85L49.6 277.725C34.525 289.825 24.925 308.275 24.925 328.95C24.925 330.425 24.975 331.875 25.075 333.325V333.125C26.075 360.55 35.475 385.6 50.75 405.975L50.5 405.65C63.2 423.55 79.75 437.925 98.975 447.775L99.725 448.125C110.3 453.85 122.875 457.2 136.25 457.2C142.3 457.2 148.175 456.5 153.825 455.2L153.3 455.3C246.925 524.65 418.275 584.9 535.4 514.2L472.15 463.3C455.725 467.7 436.85 470.25 417.4 470.25C387.625 470.25 359.225 464.325 333.325 453.55L334.775 454.075C352.575 459.95 373.05 463.325 394.3 463.325C434.125 463.325 471.2 451.45 502.15 431.075L501.425 431.525C495.25 424.825 487.9 419.3 479.675 415.275L479.25 415.075C490.65 417.6 500.5 423.05 508.325 430.6L508.3 430.575C512.55 436.025 515.125 442.95 515.125 450.475C515.125 450.65 515.125 450.825 515.125 451V450.975C532.4 460.275 552.075 471.475 573.7 484.15C638.05 419.8 675.325 298.8 652.425 89.9748C651.325 81.5748 648.45 76.6998 645.15 76.1748L645.175 76.2248Z" fill="white"/>
</svg>
