<svg width="800" height="800" viewBox="0 0 800 800" fill="none" xmlns="http://www.w3.org/2000/svg">
<path d="M635.775 630.225C604.2 658.6 639.325 687.325 670.475 669.025C677.4 662 670.25 637.275 635.775 630.225ZM182.4 676.025C206.9 697.25 244.8 670.75 256.125 641.15C232.375 609.6 143.45 642.3 182.4 676.025ZM648.775 601.35C648.775 615.4 752.3 624.625 752.3 598.05C742.375 579.725 723.3 567.5 701.35 567.5C678.125 567.5 658.075 581.225 648.925 601L648.775 601.35ZM330.825 55.4L54.025 338.625C-39.475 454.425 117.7 440.975 185.05 474.3C209.225 499 92.425 517.25 116.6 541.975C140.75 566.675 262.75 589.575 286.95 614.275C311.1 638.975 237.475 665.2 261.65 689.875C285.8 714.625 341.725 691.175 352.175 748.225C359.6 788.975 452.9 765.725 498.5 732.35C522.675 707.65 452.275 709.95 476.45 685.25C536.525 623.8 592.5 662.95 613.075 601.325C623.225 570.9 524.6 554.425 548.8 529.725C618.35 489.1 858.675 462.675 744.625 348.65L457.775 55.4C441.3 39.675 418.925 30 394.3 30C369.675 30 347.3 39.675 330.8 55.425L330.825 55.4ZM441.025 75.3L550.525 186.525C555.7 192.25 558.85 199.85 558.85 208.225C558.85 213.875 557.4 219.175 554.875 223.8L554.95 223.625L500.6 180.15L489.925 244.55L444.475 220.575L371.75 266.5L347.675 169.65L308.6 237.25H248.825C224.45 237.25 221.625 206.325 243.725 184.2C282.375 142.5 326.725 99.975 350.85 75.325C362.5 64 378.4 57.025 395.95 57.025C413.5 57.025 429.4 64 441.05 75.35L441.025 75.3ZM264.6 489.7C272 494.3 383.875 517.025 411.225 521.575C420.7 523.575 413.975 533.325 400.925 539.925C371.475 547.775 228.575 489.725 264.625 489.725L264.6 489.7Z" fill="white"/>
</svg>
